<svg id="Capa_1" enable-background="new 0 0 512 512" height="512" viewBox="0 0 512 512" width="512" xmlns="http://www.w3.org/2000/svg" xmlns:xlink="http://www.w3.org/1999/xlink"><linearGradient id="SVGID_1_" gradientUnits="userSpaceOnUse" x1="74.98" x2="437.019" y1="437.019" y2="74.98"><stop offset="0" stop-color="#ff4747"/><stop offset="1" stop-color="#ff9ceb"/></linearGradient><radialGradient id="SVGID_2_" cx="308.732" cy="212.394" gradientUnits="userSpaceOnUse" r="327.846"><stop offset="0" stop-color="#ff2f2b"/><stop offset=".0302" stop-color="#ff3638" stop-opacity=".97"/><stop offset=".1558" stop-color="#ff5167" stop-opacity=".844"/><stop offset=".2855" stop-color="#ff6890" stop-opacity=".715"/><stop offset=".4173" stop-color="#ff7bb1" stop-opacity=".583"/><stop offset=".5521" stop-color="#ff89ca" stop-opacity=".448"/><stop offset=".6911" stop-color="#ff94dd" stop-opacity=".309"/><stop offset=".8368" stop-color="#ff9ae7" stop-opacity=".163"/><stop offset="1" stop-color="#ff9ceb" stop-opacity="0"/></radialGradient><linearGradient id="lg1"><stop offset="0" stop-color="#ffa9d4"/><stop offset=".2953" stop-color="#ffc6e3"/><stop offset=".7601" stop-color="#ffeff7"/><stop offset="1" stop-color="#fff"/></linearGradient><linearGradient id="SVGID_3_" gradientTransform="matrix(.707 .707 -.707 .707 200.645 -112.399)" gradientUnits="userSpaceOnUse" x1="315.015" x2="315.015" xlink:href="#lg1" y1="377.721" y2="149.087"/><linearGradient id="SVGID_4_" gradientTransform="matrix(.707 .707 -.707 .707 200.645 -112.399)" gradientUnits="userSpaceOnUse" x1="284.265" x2="284.265" xlink:href="#lg1" y1="383.612" y2="186.15"/><linearGradient id="SVGID_5_" gradientTransform="matrix(.707 .707 -.707 .707 200.645 -112.399)" gradientUnits="userSpaceOnUse" x1="299.64" x2="299.64" y1="278.628" y2="183.554"><stop offset=".0105" stop-color="#ff9ceb" stop-opacity="0"/><stop offset=".2185" stop-color="#ff9ae8" stop-opacity=".21"/><stop offset=".3652" stop-color="#ff95df" stop-opacity=".358"/><stop offset=".4931" stop-color="#ff8ccf" stop-opacity=".488"/><stop offset=".6101" stop-color="#ff80b9" stop-opacity=".606"/><stop offset=".7199" stop-color="#ff709d" stop-opacity=".717"/><stop offset=".8242" stop-color="#ff5c7a" stop-opacity=".822"/><stop offset=".9223" stop-color="#ff4451" stop-opacity=".921"/><stop offset="1" stop-color="#ff2f2b"/></linearGradient><linearGradient id="lg2"><stop offset="0" stop-color="#ffa9d4"/><stop offset=".5565" stop-color="#ffdbed"/><stop offset="1" stop-color="#fff"/></linearGradient><linearGradient id="SVGID_6_" gradientTransform="matrix(.707 .707 -.707 .707 200.645 -112.399)" gradientUnits="userSpaceOnUse" x1="322.797" x2="322.797" xlink:href="#lg2" y1="382.257" y2="44.889"/><linearGradient id="SVGID_7_" gradientTransform="matrix(.707 .707 -.707 .707 200.645 -112.399)" gradientUnits="userSpaceOnUse" x1="276.585" x2="276.585" xlink:href="#lg2" y1="419.013" y2="80.986"/><linearGradient id="lg3"><stop offset="0" stop-color="#ff195e"/><stop offset=".1028" stop-color="#ff2466"/><stop offset=".2813" stop-color="#ff407b"/><stop offset=".5141" stop-color="#ff6f9c"/><stop offset=".7891" stop-color="#ffaeca"/><stop offset="1" stop-color="#ffe3f1"/></linearGradient><linearGradient id="SVGID_8_" gradientTransform="matrix(.707 .707 -.707 .707 200.645 -112.399)" gradientUnits="userSpaceOnUse" x1="316.093" x2="316.093" xlink:href="#lg3" y1="975.725" y2="-19.622"/><linearGradient id="SVGID_9_" gradientTransform="matrix(.707 .707 -.707 .707 200.645 -112.399)" gradientUnits="userSpaceOnUse" x1="284.478" x2="284.478" xlink:href="#lg3" y1="948.383" y2="87.008"/><linearGradient id="SVGID_10_" gradientTransform="matrix(.707 .707 -.707 .707 200.645 -112.399)" gradientUnits="userSpaceOnUse" x1="330.378" x2="330.378" xlink:href="#lg1" y1="283.956" y2="147.06"/><linearGradient id="SVGID_11_" gradientTransform="matrix(.707 .707 -.707 .707 200.645 -112.399)" gradientUnits="userSpaceOnUse" x1="284.27" x2="284.27" xlink:href="#lg1" y1="307.183" y2="170.276"/><linearGradient id="SVGID_12_" gradientTransform="matrix(.707 .707 -.707 .707 200.645 -112.399)" gradientUnits="userSpaceOnUse" x1="398.603" x2="398.603" xlink:href="#lg3" y1="887.853" y2="-14.317"/><linearGradient id="SVGID_13_" gradientTransform="matrix(.707 .707 -.707 .707 200.645 -112.399)" gradientUnits="userSpaceOnUse" x1="200.676" x2="200.676" xlink:href="#lg3" y1="803.193" y2="13.522"/><linearGradient id="SVGID_14_" gradientTransform="matrix(.707 .707 -.707 .707 200.645 -112.399)" gradientUnits="userSpaceOnUse" x1="414.187" x2="414.187" xlink:href="#lg1" y1="309.954" y2="-39.559"/><linearGradient id="SVGID_15_" gradientTransform="matrix(.707 .707 -.707 .707 200.645 -112.399)" gradientUnits="userSpaceOnUse" x1="185.092" x2="185.092" xlink:href="#lg1" y1="309.954" y2="-39.559"/><g><circle cx="256" cy="256" fill="url(#SVGID_1_)" r="256"/><circle cx="256" cy="256" fill="url(#SVGID_2_)" r="256"/><path d="m266.786 234.352c-14.5 14.49-28.996 28.983-43.487 43.481 10.864 10.873 21.741 21.732 32.631 32.578 14.487-14.455 28.953-28.932 43.398-43.429-10.825-10.899-21.672-21.775-32.542-32.63z" fill="url(#SVGID_3_)"/><path d="m245.018 212.672c-14.497 14.445-28.974 28.911-43.429 43.398 10.847 10.89 21.706 21.768 32.578 32.631 14.498-14.492 28.992-28.987 43.481-43.487-10.854-10.87-21.731-21.717-32.63-32.542z" fill="url(#SVGID_4_)"/><path d="m245.018 212.672c-14.497 14.445-28.974 28.911-43.429 43.398 18.077 18.15 36.191 36.264 54.341 54.341 14.487-14.455 28.953-28.932 43.398-43.429-18.042-18.164-36.145-36.268-54.31-54.31z" fill="url(#SVGID_5_)"/><path d="m391.855 173.553c-34.7-.632-70.091-1.179-105.645-1.815.789 35.091 1.49 70.638 2.281 106.113 10.846 10.89 21.679 21.794 32.499 32.71 34.304-34.467 68.347-69.195 102.13-104.183-10.325-11.039-20.746-21.981-31.265-32.825z" fill="url(#SVGID_6_)"/><path d="m305.622 88.881c-34.989 33.783-69.716 67.826-104.183 102.13 29.111 28.853 58.128 57.8 87.052 86.841 34.573-34.647 69.028-69.414 103.364-104.298-28.051-28.918-56.795-57.142-86.233-84.673z" fill="url(#SVGID_7_)"/><path d="m175.161 404.868c23.382-27.73 46.667-55.623 69.9-83.618-9.091-16.241-18.145-32.539-27.193-48.854-41.308 41.343-82.549 82.754-123.722 124.233 2.186 4.483 5.121 8.676 8.836 12.39 19.87 19.843 53.664 17.717 72.179-4.151z" fill="url(#SVGID_8_)"/><path d="m153.458 383.654c23.326-27.956 46.59-56.004 69.835-84.084-1.81-9.05-3.617-18.111-5.425-27.174-9.051-1.814-18.093-3.631-27.117-5.457-27.995 23.233-55.888 46.519-83.618 69.9-17.818 15.049-22.476 40.242-12.987 59.789 19.296 9.668 44.29 4.995 59.312-12.974z" fill="url(#SVGID_9_)"/><path d="m266.792 299.566c-7.253-7.243-14.503-14.487-21.752-21.734-7.248 7.247-14.497 14.493-21.747 21.737 7.246 7.237 14.502 14.463 21.768 21.68 6.02 5.975 15.772 5.976 21.764.004 5.991-5.972 5.973-15.686-.033-21.687z" fill="url(#SVGID_10_)"/><path d="m245.044 299.561c6.005-5.997 5.999-15.725-.004-21.729-10.873-10.87-21.741-21.744-32.605-32.623-6.002-6.006-15.715-6.025-21.688-.033-5.972 5.992-5.973 15.744.004 21.764 10.825 10.899 21.673 21.776 32.542 32.63 6.003 5.993 15.747 5.985 21.751-.009z" fill="url(#SVGID_11_)"/><path d="m412.763 195.371c-33.986 34.972-68.185 69.732-102.597 104.278-2.98 2.993-2.972 7.857.023 10.864 2.997 3.007 7.83 3.031 10.801.048 27.972-6.317 55.688-12.553 82.916-18.69 6.235-28.385 12.646-56.961 19.213-85.494 2.924-3.03 2.992-7.961.141-10.998-2.848-3.038-7.553-3.036-10.497-.008z" fill="url(#SVGID_12_)"/><path d="m305.622 88.881c-28.534 6.567-57.109 12.978-85.494 19.213-6.136 27.228-12.372 54.944-18.69 82.916-2.984 2.97-2.96 7.806.048 10.801 3.009 2.994 7.872 3.005 10.864.023 34.546-34.412 69.305-68.612 104.278-102.597 3.029-2.944 3.031-7.649-.008-10.497-3.038-2.849-7.968-2.783-10.998.141z" fill="url(#SVGID_13_)"/><path d="m423.119 206.378c-33.783 34.988-67.826 69.716-102.13 104.183-11.893 11.95-11.816 31.319.232 43.287 12.051 11.961 31.333 12.193 42.976.45 33.682-33.964 66.914-68.379 99.696-103.244 11.314-12.066 11.636-32.091.593-44.444-11.044-12.353-29.64-12.343-41.367-.232z" fill="url(#SVGID_14_)"/><path d="m260.945 48.106c-34.865 32.782-69.279 66.014-103.244 99.696-11.742 11.641-11.511 30.925.45 42.976 11.968 12.048 31.337 12.127 43.287.232 34.467-34.304 69.195-68.347 104.183-102.13 12.113-11.728 12.119-30.323-.233-41.369-12.351-11.043-32.379-10.719-44.443.595z" fill="url(#SVGID_15_)"/></g></svg>