<svg id="Capa_1" enable-background="new 0 0 512 512" height="512" viewBox="0 0 512 512" width="512" xmlns="http://www.w3.org/2000/svg" xmlns:xlink="http://www.w3.org/1999/xlink"><linearGradient id="SVGID_1_" gradientUnits="userSpaceOnUse" x1="74.981" x2="437.019" y1="437.019" y2="74.981"><stop offset="0" stop-color="#00aa45"/><stop offset="1" stop-color="#d3ff33"/></linearGradient><radialGradient id="SVGID_2_" cx="256" cy="256" gradientUnits="userSpaceOnUse" r="256"><stop offset="0" stop-color="#00aa45"/><stop offset=".0996" stop-color="#0bae44" stop-opacity=".9"/><stop offset=".2738" stop-color="#28ba42" stop-opacity=".726"/><stop offset=".5019" stop-color="#57cd3e" stop-opacity=".498"/><stop offset=".772" stop-color="#97e738" stop-opacity=".228"/><stop offset="1" stop-color="#d3ff33" stop-opacity="0"/></radialGradient><linearGradient id="SVGID_3_" gradientUnits="userSpaceOnUse" x1="200.18" x2="318.553" y1="417.103" y2="298.73"><stop offset="0" stop-color="#eaedc2"/><stop offset=".9193" stop-color="#fff"/></linearGradient><linearGradient id="SVGID_4_" gradientUnits="userSpaceOnUse" x1="-63.79" x2="326.792" y1="511.39" y2="120.808"><stop offset="0" stop-color="#eaedc2"/><stop offset=".5215" stop-color="#f6f7e4"/><stop offset="1" stop-color="#fff"/></linearGradient><radialGradient id="SVGID_5_" cx="340.194" cy="383.751" gradientUnits="userSpaceOnUse" r="164.72"><stop offset="0" stop-color="#95e12e"/><stop offset=".1382" stop-color="#a5e34a" stop-opacity=".862"/><stop offset=".4243" stop-color="#c2e77d" stop-opacity=".576"/><stop offset=".6737" stop-color="#d8eaa3" stop-opacity=".326"/><stop offset=".8739" stop-color="#e5ecba" stop-opacity=".126"/><stop offset="1" stop-color="#eaedc2" stop-opacity="0"/></radialGradient><linearGradient id="SVGID_6_" gradientUnits="userSpaceOnUse" x1="398.384" x2="207.247" y1="450.512" y2="259.376"><stop offset="0" stop-color="#b8ef5c"/><stop offset=".26" stop-color="#bbef61" stop-opacity=".74"/><stop offset=".5663" stop-color="#c2ee6f" stop-opacity=".434"/><stop offset=".8949" stop-color="#cfed87" stop-opacity=".105"/><stop offset="1" stop-color="#d4ed90" stop-opacity="0"/></linearGradient><g><circle cx="256" cy="256" fill="url(#SVGID_1_)" r="256"/><circle cx="256" cy="256" fill="url(#SVGID_2_)" r="256"/><path d="m383.164 309.061c-39.595 39.174-79.251 79.49-117.811 118.935-5.521-45.01-11.273-90.06-17.033-135.099 44.997 5.778 89.955 11.295 134.844 16.164z" fill="url(#SVGID_3_)"/><path d="m117.954 90c-3.855 110.667-3.855 221.333 0 332 .295 8.275 7.27 15.44 15.546 15.933 33.333 1.955 66.667 3.111 100 3.47 12.416.137 23.66-5.03 31.853-13.407 8.184-8.38 13.332-19.968 13.392-32.688.086-18.779.154-37.559.205-56.338.02-8.487 6.897-15.391 15.363-15.443 18.73-.12 37.461-.328 56.192-.624 12.687-.202 24.248-5.527 32.658-13.842 8.406-8.324 13.674-19.647 13.728-32.061.275-62.333-.674-124.667-2.845-187-.294-8.275-7.268-15.44-15.546-15.933-81.667-4.789-163.333-4.789-245 0-8.279.494-15.252 7.658-15.546 15.933z" fill="url(#SVGID_4_)"/><path d="m117.954 90c-3.855 110.667-3.855 221.333 0 332 .295 8.275 7.27 15.44 15.546 15.933 33.333 1.955 66.667 3.111 100 3.47 12.416.137 23.66-5.03 31.853-13.407 8.184-8.38 13.332-19.968 13.392-32.688.086-18.779.154-37.559.205-56.338.02-8.487 6.897-15.391 15.363-15.443 18.73-.12 37.461-.328 56.192-.624 12.687-.202 24.248-5.527 32.658-13.842 8.406-8.324 13.674-19.647 13.728-32.061.275-62.333-.674-124.667-2.845-187-.294-8.275-7.268-15.44-15.546-15.933-81.667-4.789-163.333-4.789-245 0-8.279.494-15.252 7.658-15.546 15.933z" fill="url(#SVGID_5_)"/><path d="m365.93 312.544c-12.715-.6-75.337-12.53-75.355-12.624-20.599-3.543-37.768 14.511-35.174 35.289.02.003 7.272 62.786 8.156 75.554.621 8.685-2.009 16.857-6.327 23.823 2.947-1.875 5.675-4.087 8.123-6.591 8.184-8.38 13.332-19.968 13.392-32.688.086-18.779.154-37.559.205-56.338.02-8.487 6.897-15.391 15.363-15.443 18.73-.12 37.461-.328 56.192-.624 12.433-.199 23.777-5.325 32.143-13.356-5.206 2.166-10.847 3.339-16.718 2.998z" fill="url(#SVGID_6_)"/></g></svg>