<svg id="Capa_1" enable-background="new 0 0 512 512" height="512" viewBox="0 0 512 512" width="512" xmlns="http://www.w3.org/2000/svg" xmlns:xlink="http://www.w3.org/1999/xlink"><linearGradient id="SVGID_1_" gradientUnits="userSpaceOnUse" x1="74.981" x2="437.019" y1="437.019" y2="74.981"><stop offset="0" stop-color="#0072ff"/><stop offset="1" stop-color="#00deb0"/></linearGradient><radialGradient id="SVGID_2_" cx="278.31" cy="237.747" gradientUnits="userSpaceOnUse" r="256"><stop offset="0" stop-color="#0072ff"/><stop offset=".6798" stop-color="#00baca" stop-opacity=".32"/><stop offset="1" stop-color="#00deb0" stop-opacity="0"/></radialGradient><radialGradient id="SVGID_3_" cx="256" cy="196.299" gradientTransform="matrix(.707 .707 -.707 .707 256 -106.039)" gradientUnits="userSpaceOnUse" r="186.304"><stop offset="0" stop-color="#0072ff" stop-opacity=".8"/><stop offset="1" stop-color="#0072ff" stop-opacity="0"/></radialGradient><linearGradient id="SVGID_4_" gradientTransform="matrix(.707 .707 -.707 .707 256 -106.039)" gradientUnits="userSpaceOnUse" x1="256" x2="256" y1="515.032" y2="302.868"><stop offset="0" stop-color="#00a7d8"/><stop offset=".0129" stop-color="#03a8d8"/><stop offset=".2678" stop-color="#3dbede"/><stop offset=".5028" stop-color="#6bd0e2"/><stop offset=".7106" stop-color="#8cdde5"/><stop offset=".8835" stop-color="#a0e4e7"/><stop offset="1" stop-color="#a7e7e8"/></linearGradient><linearGradient id="SVGID_5_" gradientTransform="matrix(.707 .707 -.707 .707 256 -106.039)" gradientUnits="userSpaceOnUse" x1="256" x2="256" y1="377.288" y2="484.137"><stop offset="0" stop-color="#3dcbcd"/><stop offset=".083" stop-color="#51d0d2" stop-opacity=".917"/><stop offset=".3037" stop-color="#82dddf" stop-opacity=".696"/><stop offset=".5128" stop-color="#a9e8e9" stop-opacity=".487"/><stop offset=".7047" stop-color="#c4eff0" stop-opacity=".295"/><stop offset=".8731" stop-color="#d5f3f4" stop-opacity=".127"/><stop offset="1" stop-color="#dbf5f6" stop-opacity="0"/></linearGradient><linearGradient id="SVGID_6_" gradientTransform="matrix(-.707 -.707 -.707 .707 607.432 245.393)" gradientUnits="userSpaceOnUse" x1="232.87" x2="232.87" y1="493.285" y2="343.957"><stop offset="0" stop-color="#00a7d8"/><stop offset=".1861" stop-color="#23b6da"/><stop offset=".4343" stop-color="#4bc7dc"/><stop offset=".6613" stop-color="#68d3dd"/><stop offset=".8573" stop-color="#7adade"/><stop offset="1" stop-color="#80ddde"/></linearGradient><linearGradient id="SVGID_7_" gradientTransform="matrix(.707 .707 -.707 .707 256 -106.039)" gradientUnits="userSpaceOnUse" x1="256" x2="256" y1="312.928" y2="408.629"><stop offset="0" stop-color="#00babd"/><stop offset=".0244" stop-color="#15c0c2"/><stop offset=".0841" stop-color="#43ccce"/><stop offset=".1478" stop-color="#6cd7d9"/><stop offset=".2144" stop-color="#8ee0e2"/><stop offset=".2848" stop-color="#aae8e9"/><stop offset=".3603" stop-color="#c0eeef"/><stop offset=".4434" stop-color="#cff2f3"/><stop offset=".54" stop-color="#d8f4f5"/><stop offset=".6816" stop-color="#dbf5f6"/></linearGradient><linearGradient id="SVGID_8_" gradientTransform="matrix(.707 .707 -.707 .707 256 -106.039)" gradientUnits="userSpaceOnUse" x1="256" x2="256" y1="483.582" y2="-29.919"><stop offset="0" stop-color="#00a7d8"/><stop offset=".2136" stop-color="#33b9df"/><stop offset=".5977" stop-color="#89d9ea"/><stop offset=".8688" stop-color="#bfecf1"/><stop offset="1" stop-color="#d4f4f4"/></linearGradient><linearGradient id="SVGID_9_" gradientTransform="matrix(.707 -.707 .707 .707 -490.654 458.898)" gradientUnits="userSpaceOnUse" x1="456.3" x2="596.359" y1="384.494" y2="384.494"><stop offset="0" stop-color="#80ddde"/><stop offset=".2254" stop-color="#ace9e9"/><stop offset=".4509" stop-color="#d0f2f3"/><stop offset=".6619" stop-color="#eaf9f9"/><stop offset=".8511" stop-color="#f9fefe"/><stop offset="1" stop-color="#fff"/></linearGradient><linearGradient id="SVGID_10_" gradientTransform="matrix(.707 -.707 .707 .707 -490.654 458.898)" gradientUnits="userSpaceOnUse" x1="465.822" x2="564.859" y1="368.524" y2="368.524"><stop offset="0" stop-color="#80ddde"/><stop offset=".2304" stop-color="#ade9ea"/><stop offset=".4535" stop-color="#d1f3f3"/><stop offset=".6619" stop-color="#eaf9fa"/><stop offset=".85" stop-color="#fafefe"/><stop offset="1" stop-color="#fff"/></linearGradient><linearGradient id="SVGID_11_" gradientTransform="matrix(.707 .707 -.707 .707 256 -106.039)" gradientUnits="userSpaceOnUse" x1="54.35" x2="381.089" y1="396.423" y2="69.685"><stop offset="0" stop-color="#00babd"/><stop offset=".024" stop-color="#0dbdc0"/><stop offset=".1472" stop-color="#4bced0"/><stop offset=".2652" stop-color="#7edcde"/><stop offset=".3751" stop-color="#a6e7e8"/><stop offset=".4749" stop-color="#c3eff0"/><stop offset=".5613" stop-color="#d5f3f4"/><stop offset=".6246" stop-color="#dbf5f6"/></linearGradient><linearGradient id="SVGID_12_" gradientTransform="matrix(.707 .707 -.707 .707 238.426 -148.465)" gradientUnits="userSpaceOnUse" x1="360.911" x2="360.911" y1="447.095" y2="22.864"><stop offset="0" stop-color="#80ddde"/><stop offset=".012" stop-color="#84dedf"/><stop offset=".1526" stop-color="#a9e8e9"/><stop offset=".2995" stop-color="#c8f0f1"/><stop offset=".452" stop-color="#e0f7f7"/><stop offset=".6128" stop-color="#f2fbfc"/><stop offset=".7871" stop-color="#fcfefe"/><stop offset="1" stop-color="#fff"/></linearGradient><linearGradient id="SVGID_13_" gradientTransform="matrix(.707 .707 -.707 .707 256 -106.039)" gradientUnits="userSpaceOnUse" x1="252.778" x2="252.778" y1="355.762" y2="-188.195"><stop offset="0" stop-color="#80ddde"/><stop offset=".1288" stop-color="#94e2e3" stop-opacity=".871"/><stop offset=".5367" stop-color="#cdf2f2" stop-opacity=".463"/><stop offset=".839" stop-color="#f1fbfb" stop-opacity=".161"/><stop offset="1" stop-color="#fff" stop-opacity="0"/></linearGradient><g><circle cx="256" cy="256" fill="url(#SVGID_1_)" r="256"/><circle cx="256" cy="256" fill="url(#SVGID_2_)" r="256"/><path d="m431.487 344.159c-76.821 77.056-188.948 78.473-264.902 1.256-77.216-75.954-75.799-188.08 1.256-264.902 75.89-78.043 185.02-76.464 262.005 1.641 78.106 76.983 79.684 186.115 1.641 262.005z" fill="url(#SVGID_3_)"/><path d="m189.158 368.066c-14.972-15.144-30.079-30.251-45.224-45.224-21.431 21.175-42.334 41.744-62.426 61.437-5.557 5.436-4.744 14.906 1.701 21.293 7.773 7.702 15.517 15.446 23.219 23.219 6.388 6.445 15.858 7.256 21.293 1.701 19.693-20.093 40.263-40.993 61.437-62.426z" fill="url(#SVGID_4_)"/><path d="m189.158 368.066c-14.972-15.144-30.079-30.251-45.224-45.224-21.431 21.175-42.334 41.744-62.426 61.437-5.557 5.436-4.744 14.906 1.701 21.293 7.773 7.702 15.517 15.446 23.219 23.219 6.388 6.445 15.858 7.256 21.293 1.701 19.693-20.093 40.263-40.993 61.437-62.426z" fill="url(#SVGID_5_)"/><path d="m161.994 388.407c5.518-3.191 11.061-6.415 16.628-9.671-17.471 17.707-34.491 35.012-50.901 51.756-5.434 5.557-14.906 4.743-21.293-1.701-7.702-7.774-15.446-15.517-23.219-23.219 28.147 2.39 55.111-3.455 78.785-17.165z" fill="url(#SVGID_6_)"/><path d="m221.33 335.563c-14.887-15.009-29.883-30.007-44.892-44.892-10.94 10.848-21.787 21.584-32.503 32.172 15.144 14.972 30.252 30.08 45.224 45.224 10.586-10.716 21.323-21.564 32.171-32.504z" fill="url(#SVGID_7_)"/><path d="m410.202 323.097c-63.47 63.503-159.268 64.484-222.151.852-63.631-62.884-62.65-158.68.852-222.151 62.824-64.197 156.523-63.078 220.122 1.177 64.256 63.601 65.375 157.296 1.177 220.122z" fill="url(#SVGID_8_)"/><path d="m133.264 333.378c15.197 15.008 30.35 30.163 45.359 45.359 6.222 6.299 15.905 6.638 21.737.693 5.83-5.944 5.621-15.874-.567-22.121-14.939-15.094-30.006-30.161-45.101-45.101-6.248-6.19-16.178-6.396-22.121-.567-5.946 5.832-5.607 15.514.693 21.737z" fill="url(#SVGID_9_)"/><path d="m133.264 333.378c7.599 7.504 15.186 15.044 22.75 22.609 6.271 6.271 16.031 6.632 21.891.73 5.859-5.9 5.625-15.791-.604-22.017-7.521-7.521-15.062-15.023-22.609-22.492-6.248-6.19-16.178-6.396-22.121-.567-5.946 5.832-5.607 15.514.693 21.737z" fill="url(#SVGID_10_)"/><path d="m388.575 301.653c-50.447 50.382-128.665 51-178.75.523-50.477-50.085-49.856-128.304.523-178.75 50.033-50.83 126.897-50.096 177.441.786 50.88 50.544 51.614 127.407.786 177.441z" fill="url(#SVGID_11_)"/><path d="m387.678 124.104c-34.728 27.791-57.521 72.275-57.592 121.983-.056 29.881 8.089 57.824 22.005 81.375 43.249-20.953 74.606-64.668 74.284-114.335-.193-34.28-15.329-65.656-38.697-89.023z" fill="url(#SVGID_12_)"/><path d="m243 291.345c-50.19-49.934-49.365-129.195.451-179.489 9.948-10.089 21.034-18.16 32.77-24.15-23.865 4.543-46.879 16.599-65.873 35.719-50.381 50.445-51 128.664-.523 178.75 40.016 40.078 97.9 48.302 145.341 23.774-39.436 8.018-81.319-3.677-112.166-34.604z" fill="url(#SVGID_13_)"/></g></svg>