<svg id="Capa_1" enable-background="new 0 0 512 512" height="512" viewBox="0 0 512 512" width="512" xmlns="http://www.w3.org/2000/svg" xmlns:xlink="http://www.w3.org/1999/xlink"><linearGradient id="lg1"><stop offset="0" stop-color="#ff4031"/><stop offset="1" stop-color="#ff9ceb"/></linearGradient><linearGradient id="SVGID_1_" gradientUnits="userSpaceOnUse" x1="74.981" x2="437.02" xlink:href="#lg1" y1="437.019" y2="74.98"/><radialGradient id="SVGID_2_" cx="256.001" cy="256" gradientUnits="userSpaceOnUse" r="256"><stop offset="0" stop-color="#ff4031"/><stop offset=".1093" stop-color="#ff453c" stop-opacity=".891"/><stop offset=".2991" stop-color="#ff5358" stop-opacity=".701"/><stop offset=".5467" stop-color="#ff6a86" stop-opacity=".453"/><stop offset=".8392" stop-color="#ff89c5" stop-opacity=".161"/><stop offset="1" stop-color="#ff9ceb" stop-opacity="0"/></radialGradient><linearGradient id="lg2"><stop offset="0" stop-color="#ff79a2"/><stop offset=".4509" stop-color="#ffb0cb"/><stop offset=".8103" stop-color="#ffd5e6"/><stop offset="1" stop-color="#ffe3f1"/></linearGradient><linearGradient id="SVGID_3_" gradientUnits="userSpaceOnUse" x1="169.037" x2="434.11" xlink:href="#lg2" y1="332.766" y2="67.693"/><linearGradient id="lg3"><stop offset="0" stop-color="#ff79a2"/><stop offset=".3028" stop-color="#ff95b9"/><stop offset=".7584" stop-color="#ffbad7"/><stop offset="1" stop-color="#ffc8e3"/></linearGradient><linearGradient id="SVGID_4_" gradientUnits="userSpaceOnUse" x1="57.893" x2="341.062" xlink:href="#lg3" y1="307.308" y2="24.139"/><radialGradient id="SVGID_5_" cx="134.585" cy="134.585" gradientUnits="userSpaceOnUse" r="54.726"><stop offset="0" stop-color="#ffe3f1"/><stop offset=".2485" stop-color="#ffdbed"/><stop offset=".6434" stop-color="#ffc3e1"/><stop offset="1" stop-color="#ffa9d4"/></radialGradient><radialGradient id="SVGID_6_" cx="377.415" cy="134.585" gradientUnits="userSpaceOnUse" r="70.454"><stop offset="0" stop-color="#ffe3f1"/><stop offset=".2391" stop-color="#fde"/><stop offset=".5456" stop-color="#ffcde6"/><stop offset=".8873" stop-color="#ffb3d9"/><stop offset="1" stop-color="#ffa9d4"/></radialGradient><linearGradient id="SVGID_7_" gradientUnits="userSpaceOnUse" x1="156.223" x2="321.489" xlink:href="#lg1" y1="237.307" y2="72.042"/><linearGradient id="SVGID_8_" gradientUnits="userSpaceOnUse" x1="40.321" x2="466.32" y1="509.463" y2="83.464"><stop offset="0" stop-color="#ffceec"/><stop offset=".9015" stop-color="#fffafd"/><stop offset="1" stop-color="#fff"/></linearGradient><linearGradient id="SVGID_9_" gradientUnits="userSpaceOnUse" x1="104.728" x2="341.079" y1="481.776" y2="245.425"><stop offset=".0056" stop-color="#ff4031"/><stop offset=".2492" stop-color="#ff473b"/><stop offset=".6596" stop-color="#ff5a55"/><stop offset="1" stop-color="#ff6e70"/></linearGradient><linearGradient id="SVGID_10_" gradientUnits="userSpaceOnUse" x1="182.19" x2="395.81" xlink:href="#lg1" y1="419.736" y2="206.116"/><linearGradient id="SVGID_11_" gradientUnits="userSpaceOnUse" x1="159.475" x2="410.524" y1="396.06" y2="145.011"><stop offset="0" stop-color="#ff4031"/><stop offset=".1574" stop-color="#ff4235"/><stop offset=".3046" stop-color="#ff4740"/><stop offset=".4479" stop-color="#ff5153"/><stop offset=".5887" stop-color="#ff5e6e"/><stop offset=".7277" stop-color="#ff6f90"/><stop offset=".8639" stop-color="#ff83b9"/><stop offset=".9982" stop-color="#ff9cea"/><stop offset="1" stop-color="#ff9ceb"/></linearGradient><linearGradient id="SVGID_12_" gradientUnits="userSpaceOnUse" x1="152.633" x2="407.674" y1="454.77" y2="199.73"><stop offset="0" stop-color="#ff4031"/><stop offset=".107" stop-color="#ff4439"/><stop offset=".2753" stop-color="#ff4f50"/><stop offset=".4841" stop-color="#ff6175"/><stop offset=".7251" stop-color="#ff7ba8"/><stop offset=".9904" stop-color="#ff9be9"/><stop offset="1" stop-color="#ff9ceb"/></linearGradient><linearGradient id="SVGID_13_" gradientUnits="userSpaceOnUse" x1="217.498" x2="431.017" xlink:href="#lg1" y1="389.906" y2="176.387"/><linearGradient id="SVGID_14_" gradientUnits="userSpaceOnUse" x1="55.138" x2="251.322" xlink:href="#lg3" y1="323.482" y2="127.297"/><linearGradient id="SVGID_15_" gradientUnits="userSpaceOnUse" x1="159.821" x2="353.902" xlink:href="#lg3" y1="424.706" y2="230.624"/><linearGradient id="SVGID_16_" gradientUnits="userSpaceOnUse" x1="82.236" x2="310.109" xlink:href="#lg2" y1="399.312" y2="171.438"/><g><circle cx="256" cy="256" fill="url(#SVGID_1_)" r="256"/><circle cx="256" cy="256" fill="url(#SVGID_2_)" r="256"/><path d="m401 90.061c-30-1.318-60-2.228-90-2.727.75 46 1.193 92 1.33 138 37.507-15.222 74.89-30.167 111.943-44.333-.53-23.333-1.308-46.667-2.333-70-.498-11.033-9.909-20.445-20.94-20.94z" fill="url(#SVGID_3_)"/><path d="m331.427 108.124c-.232-11.258-9.395-20.603-20.427-20.791-66.667-1.111-133.333-.202-200 2.727-11.032.497-20.444 9.907-20.939 20.94-1.025 23.333-1.803 46.667-2.333 70 55.75 13.75 111.943 28.875 168.273 44.25 25.604-6.989 51.18-13.926 76.7-20.705-.11-16.134-.272-32.267-.485-48.401-10.245-6.438-20.465-12.875-30.65-19.296 10.066-6.228 20.087-12.408 30.055-18.526-.063-3.399-.127-6.799-.194-10.198z" fill="url(#SVGID_4_)"/><path d="m149.763 134.215c-.188 8.409-7.136 15.363-15.549 15.549-8.412.186-15.057-6.41-14.805-14.755.251-8.346 7.252-15.346 15.598-15.598 8.348-.251 14.941 6.391 14.756 14.804z" fill="url(#SVGID_5_)"/><path d="m392.59 135.009c.251 8.347-6.392 14.939-14.805 14.755-8.413-.186-15.361-7.137-15.549-15.549-.185-8.412 6.408-15.056 14.755-14.805 8.346.252 15.348 7.253 15.599 15.599z" fill="url(#SVGID_6_)"/><path d="m179.785 156.144c.167-12.607.365-25.214.595-37.821 50.413-.93 100.827-.93 151.24 0 .23 12.607.428 25.214.595 37.821-50.81-.674-101.62-.674-152.43 0z" fill="url(#SVGID_7_)"/><path d="m90.061 401c.497 11.033 9.909 20.443 20.939 20.939 96.667 4.247 193.333 4.247 290 0 11.032-.496 20.443-9.908 20.939-20.939 3.222-73.333 4-146.667 2.333-220-112.182-2.5-224.364-2.5-336.545 0-1.666 73.333-.888 146.667 2.334 220z" fill="url(#SVGID_8_)"/><path d="m119.884 392.115c-1.339-40.33-2.083-80.661-2.231-120.992 10.248.038 20.496.071 30.744.099 82.099 40.826 164.397 83.24 243.719 120.892-90.744 3.014-181.488 3.014-272.232.001z" fill="url(#SVGID_9_)"/><path d="m148.397 271.223c71.066 60.269 155.246 104.176 243.719 120.892 1.339-40.33 2.083-80.661 2.231-120.992-81.983.298-163.967.332-245.95.1z" fill="url(#SVGID_10_)"/><path d="m148.57 301.669c.173 20.298.463 40.595.868 60.893 49.309.984 98.618 1.284 147.927.903-36.2-20.188-72.859-40.907-109.623-61.524-13.057-.07-26.114-.161-39.172-.272z" fill="url(#SVGID_11_)"/><path d="m363.43 301.669c-58.562.497-117.125.587-175.687.271 34.441 24.655 71.299 45.533 109.623 61.524 21.732-.168 43.464-.469 65.197-.903.404-20.297.693-40.594.867-60.892z" fill="url(#SVGID_12_)"/><path d="m363.43 301.669c-58.562.497-117.125.587-175.687.271 34.441 24.655 71.299 45.533 109.623 61.524 21.732-.168 43.464-.469 65.197-.903.404-20.297.693-40.594.867-60.892z" fill="url(#SVGID_13_)"/><path d="m133.223 210.47c-8.474.088-15.423 6.938-15.487 15.282-.062 8.345 6.799 15.094 15.288 15.071 10.248-.033 20.496-.062 30.744-.087 10.26-5.113 20.523-10.246 30.781-15.387-10.225-5.075-20.438-10.126-30.632-15.139-10.231.074-20.462.161-30.694.26z" fill="url(#SVGID_14_)"/><path d="m378.777 210.47c-10.231-.099-20.463-.186-30.694-.26-10.194 5.013-20.407 10.064-30.632 15.139 10.258 5.142 20.521 10.275 30.781 15.387 10.248.025 20.496.053 30.744.087 8.491.023 15.351-6.725 15.288-15.071-.064-8.346-7.014-15.193-15.487-15.282z" fill="url(#SVGID_15_)"/><path d="m163.917 210.21c-.074 10.175-.124 20.352-.149 30.527 61.488-.149 122.975-.149 184.463 0-.025-10.175-.074-20.352-.149-30.527-61.388-.447-122.776-.447-184.165 0z" fill="url(#SVGID_16_)"/></g></svg>