<svg id="Capa_1" enable-background="new 0 0 512 512" height="512" viewBox="0 0 512 512" width="512" xmlns="http://www.w3.org/2000/svg" xmlns:xlink="http://www.w3.org/1999/xlink"><linearGradient id="SVGID_1_" gradientUnits="userSpaceOnUse" x1="74.981" x2="437.02" y1="437.019" y2="74.98"><stop offset="0" stop-color="#364aff"/><stop offset="1" stop-color="#fc54ff"/></linearGradient><radialGradient id="SVGID_2_" cx="256.001" cy="256" gradientUnits="userSpaceOnUse" r="258.6"><stop offset=".095" stop-color="#8d00db" stop-opacity=".66"/><stop offset=".2822" stop-color="#9f0de1" stop-opacity=".523"/><stop offset=".6541" stop-color="#cc30f0" stop-opacity=".252"/><stop offset="1" stop-color="#fc54ff" stop-opacity="0"/></radialGradient><linearGradient id="lg1"><stop offset="0" stop-color="#fda0ff"/><stop offset="1" stop-color="#fff"/></linearGradient><linearGradient id="SVGID_3_" gradientUnits="userSpaceOnUse" x1="114.014" x2="237.854" xlink:href="#lg1" y1="235.908" y2="112.068"/><linearGradient id="SVGID_4_" gradientUnits="userSpaceOnUse" x1="119.402" x2="270.27" xlink:href="#lg1" y1="222.532" y2="71.664"/><linearGradient id="SVGID_5_" gradientUnits="userSpaceOnUse" x1="53.557" x2="163.409" y1="237.035" y2="127.183"><stop offset="0" stop-color="#fda0ff"/><stop offset=".9492" stop-color="#fff"/></linearGradient><linearGradient id="SVGID_6_" gradientUnits="userSpaceOnUse" x1="58.958" x2="209.079" xlink:href="#lg1" y1="223.667" y2="73.546"/><linearGradient id="SVGID_7_" gradientUnits="userSpaceOnUse" x1="314.5" x2="432.842" xlink:href="#lg1" y1="233.983" y2="115.642"/><linearGradient id="SVGID_8_" gradientUnits="userSpaceOnUse" x1="319.304" x2="464.006" xlink:href="#lg1" y1="221.052" y2="76.35"/><linearGradient id="SVGID_9_" gradientUnits="userSpaceOnUse" x1="311.394" x2="434.927" xlink:href="#lg1" y1="422.736" y2="299.203"/><linearGradient id="SVGID_10_" gradientUnits="userSpaceOnUse" x1="317.003" x2="467.427" xlink:href="#lg1" y1="409.623" y2="259.198"/><linearGradient id="SVGID_11_" gradientUnits="userSpaceOnUse" x1="250.501" x2="374.378" xlink:href="#lg1" y1="424.284" y2="300.407"/><linearGradient id="SVGID_12_" gradientUnits="userSpaceOnUse" x1="256.082" x2="406.943" xlink:href="#lg1" y1="411.029" y2="260.168"/><linearGradient id="SVGID_13_" gradientUnits="userSpaceOnUse" x1="56.594" x2="175.03" xlink:href="#lg1" y1="419.728" y2="301.292"/><linearGradient id="SVGID_14_" gradientUnits="userSpaceOnUse" x1="61.547" x2="205.229" xlink:href="#lg1" y1="406.476" y2="262.793"/><linearGradient id="SVGID_15_" gradientUnits="userSpaceOnUse" x1="175.453" x2="276.028" xlink:href="#lg1" y1="400.478" y2="299.903"/><linearGradient id="SVGID_16_" gradientUnits="userSpaceOnUse" x1="196.817" x2="346.416" xlink:href="#lg1" y1="262.027" y2="112.428"/><linearGradient id="SVGID_17_" gradientUnits="userSpaceOnUse" x1="203.925" x2="373.052" xlink:href="#lg1" y1="240.937" y2="71.81"/><g><circle cx="256" cy="256" fill="url(#SVGID_1_)" r="256"/><circle cx="256" cy="256" fill="url(#SVGID_2_)" r="256"/><path d="m188.5 82.704c-2.735.077-5.307.913-7.544 2.283-1.097 51.227-1.701 102.455-1.812 153.682 2.261 1.295 4.879 2.047 7.682 2.04 8.49-.018 15.38-6.891 15.403-15.357.114-42.567.464-85.134 1.05-127.701.109-8.465-6.502-15.186-14.779-14.947z" fill="url(#SVGID_3_)"/><path d="m186.865 225.418c.146-42.475.596-84.949 1.35-127.424.1-5.657-2.836-10.506-7.26-13.007-4.536 2.782-7.679 7.797-7.803 13.437-.922 42.359-1.472 84.718-1.65 127.078-.024 5.64 3.058 10.54 7.642 13.168 4.595-2.655 7.702-7.594 7.721-13.252z" fill="url(#SVGID_4_)"/><path d="m128.5 85.152c-2.736.146-5.32 1.035-7.58 2.44-1.974 50.447-3.061 100.894-3.261 151.34 2.258 1.27 4.875 2.005 7.678 1.992 8.491-.032 15.39-6.839 15.438-15.208.243-42.059.993-84.118 2.25-126.177.244-8.367-6.248-14.836-14.525-14.387z" fill="url(#SVGID_5_)"/><path d="m125.412 225.85c.276-41.874 1.126-83.749 2.551-125.623.188-5.577-2.663-10.285-7.042-12.634-4.582 2.853-7.808 7.861-8.021 13.407-1.592 41.667-2.543 83.333-2.851 125-.041 5.547 3.031 10.356 7.61 12.933 4.601-2.625 7.716-7.505 7.753-13.083z" fill="url(#SVGID_6_)"/><path d="m383.5 85.152c-2.736-.146-5.264.471-7.429 1.649 1.755 50.684 2.721 101.368 2.899 152.051 2.268 1.299 4.889 2.059 7.693 2.072 8.49.031 15.352-6.649 15.289-14.925-.308-41.667-1.258-83.333-2.851-125-.323-8.274-7.325-15.397-15.601-15.847z" fill="url(#SVGID_7_)"/><path d="m386.588 225.85c-.276-41.874-1.126-83.749-2.551-125.623-.191-5.575-3.396-10.588-7.967-13.425-4.39 2.39-7.263 7.137-7.097 12.738 1.257 42.059 2.007 84.118 2.25 126.177.032 5.602 3.145 10.501 7.745 13.136 4.584-2.592 7.657-7.428 7.62-13.003z" fill="url(#SVGID_8_)"/><path d="m386.663 271.075c-2.803.013-5.425.773-7.693 2.072-.178 50.684-1.144 101.368-2.899 152.051 2.165 1.179 4.694 1.796 7.429 1.649 8.277-.449 15.278-7.572 15.601-15.848 1.592-41.667 2.542-83.333 2.851-125 .062-8.275-6.799-14.955-15.289-14.924z" fill="url(#SVGID_9_)"/><path d="m384.038 411.773c1.425-41.874 2.275-83.749 2.551-125.623.037-5.575-3.036-10.41-7.618-13.003-4.599 2.635-7.713 7.533-7.745 13.136-.243 42.059-.993 84.118-2.25 126.177-.167 5.602 2.707 10.349 7.097 12.738 4.569-2.837 7.773-7.851 7.965-13.425z" fill="url(#SVGID_10_)"/><path d="m325.174 271.291c-2.803.007-5.425.771-7.689 2.082-.089 51.353-.572 102.706-1.45 154.058 2.187 1.251 4.729 1.942 7.465 1.865 8.277-.238 15.158-7.304 15.348-15.72.922-42.359 1.472-84.718 1.65-127.078.037-8.417-6.833-15.223-15.324-15.207z" fill="url(#SVGID_11_)"/><path d="m323.785 414.006c.754-42.475 1.204-84.949 1.35-127.424.02-5.656-3.064-10.571-7.65-13.208-4.595 2.659-7.699 7.606-7.713 13.275-.114 42.567-.464 85.134-1.05 127.701-.077 5.669 2.879 10.546 7.314 13.083 4.525-2.761 7.647-7.772 7.749-13.427z" fill="url(#SVGID_12_)"/><path d="m125.337 271.075c-2.803-.013-5.421.722-7.678 1.992.2 50.447 1.287 100.894 3.261 151.34 2.259 1.406 4.845 2.294 7.58 2.44 8.278.449 14.768-6.02 14.526-14.388-1.257-42.059-2.007-84.118-2.25-126.177-.049-8.368-6.948-15.175-15.439-15.207z" fill="url(#SVGID_13_)"/><path d="m127.962 411.773c-1.425-41.874-2.275-83.749-2.551-125.623-.037-5.578-3.152-10.458-7.753-13.083-4.58 2.577-7.652 7.386-7.61 12.933.308 41.667 1.258 83.333 2.851 125 .214 5.547 3.438 10.554 8.021 13.407 4.379-2.35 7.23-7.057 7.042-12.634z" fill="url(#SVGID_14_)"/><path d="m171.763 324.622c.161 16.944.38 33.887.66 50.831.556 29.36 24.717 54.211 53.577 54.609 28.862.372 52.588-24.071 52.794-53.697.076-17.073.136-34.146.18-51.219.094-29.637-24.046-53.752-53.718-53.787-29.669.013-53.793 23.893-53.493 53.263zm30.632.337c-.081-12.668 10.209-22.919 22.908-22.884 12.699.04 23.034 10.39 23.04 23.108.015 17.082.035 34.164.06 51.246.007 12.716-10.15 23.047-22.644 22.916-12.492-.133-22.8-10.64-22.944-23.306-.178-17.027-.318-34.054-.42-51.08z" fill="url(#SVGID_15_)"/><path d="m286 81.938c10.132 15.484 20.38 30.997 30.689 46.491.281 22.112.489 44.225.624 66.337-10.125 15.22-20.333 30.528-30.569 45.876 29.669-.013 53.792-23.893 53.493-53.264-.161-16.944-.381-33.887-.66-50.831-.556-29.36-24.717-54.21-53.577-54.609z" fill="url(#SVGID_16_)"/><path d="m325.027 202.482c-.164-27.184-.452-54.368-.864-81.551-.359-21.082-17.498-38.718-38.163-38.993-28.909-.372-52.588 24.023-52.794 53.697-.076 17.073-.136 34.146-.18 51.219-.094 29.685 23.998 53.752 53.718 53.787 21.226.004 38.418-17.071 38.283-38.159zm-38.33 7.443c-12.699-.04-23.033-10.39-23.04-23.108-.015-17.082-.035-34.164-.06-51.246-.008-12.716 10.15-23.048 22.644-22.916 12.493.133 22.8 10.64 22.944 23.306.178 17.027.318 34.053.42 51.08.082 12.669-10.209 22.919-22.908 22.884z" fill="url(#SVGID_17_)"/></g></svg>