<svg id="Capa_1" enable-background="new 0 0 512 512" height="512" viewBox="0 0 512 512" width="512" xmlns="http://www.w3.org/2000/svg" xmlns:xlink="http://www.w3.org/1999/xlink"><linearGradient id="SVGID_1_" gradientUnits="userSpaceOnUse" x1="74.981" x2="437.02" y1="437.02" y2="74.981"><stop offset="0" stop-color="#ff4d5f"/><stop offset="1" stop-color="#ffe057"/></linearGradient><radialGradient id="SVGID_2_" cx="248.902" cy="202.254" gradientUnits="userSpaceOnUse" r="279.648"><stop offset="0" stop-color="#fff200" stop-opacity=".6"/><stop offset=".8532" stop-color="#fff200" stop-opacity=".088"/><stop offset="1" stop-color="#fff200" stop-opacity="0"/></radialGradient><linearGradient id="SVGID_3_" gradientUnits="userSpaceOnUse" x1="154.357" x2="310.746" y1="550.966" y2="394.577"><stop offset="0" stop-color="#ff726d"/><stop offset=".2108" stop-color="#ff7f5b"/><stop offset=".6297" stop-color="#ff9f2d"/><stop offset="1" stop-color="#ffbf00"/></linearGradient><linearGradient id="lg1"><stop offset="0" stop-color="#ffcb00"/><stop offset=".5" stop-color="#fffa78"/></linearGradient><linearGradient id="SVGID_4_" gradientUnits="userSpaceOnUse" x1="265.249" x2="522.375" xlink:href="#lg1" y1="417.089" y2="159.963"/><linearGradient id="SVGID_5_" gradientUnits="userSpaceOnUse" x1="176.478" x2="519.388" xlink:href="#lg1" y1="447.213" y2="104.302"/><linearGradient id="SVGID_6_" gradientUnits="userSpaceOnUse" x1="255.996" x2="255.996" y1="352.792" y2="465.655"><stop offset="0" stop-color="#ff4c4c"/><stop offset=".2402" stop-color="#ff7d59" stop-opacity=".76"/><stop offset=".6026" stop-color="#ffc069" stop-opacity=".397"/><stop offset=".8656" stop-color="#ffea74" stop-opacity=".134"/><stop offset="1" stop-color="#fffa78" stop-opacity="0"/></linearGradient><linearGradient id="SVGID_7_" gradientUnits="userSpaceOnUse" x1="24.943" x2="509.704" y1="456.223" y2="-28.538"><stop offset="0" stop-color="#ffcb00"/><stop offset=".2839" stop-color="#fff200"/><stop offset="1" stop-color="#fff"/></linearGradient><linearGradient id="lg2"><stop offset="0" stop-color="#fff200"/><stop offset="1" stop-color="#fff"/></linearGradient><linearGradient id="SVGID_8_" gradientUnits="userSpaceOnUse" x1="-8.251" x2="483.855" xlink:href="#lg2" y1="443.443" y2="-48.662"/><linearGradient id="SVGID_9_" gradientUnits="userSpaceOnUse" x1="-33.95" x2="392.39" xlink:href="#lg2" y1="459.966" y2="33.626"/><linearGradient id="SVGID_10_" gradientUnits="userSpaceOnUse" x1="24.651" x2="388.721" xlink:href="#lg2" y1="452.983" y2="88.913"/><linearGradient id="SVGID_11_" gradientUnits="userSpaceOnUse" x1="-36.459" x2="332.82" xlink:href="#lg2" y1="478.373" y2="109.094"/><linearGradient id="SVGID_12_" gradientUnits="userSpaceOnUse" x1="-4" x2="297.63" xlink:href="#lg2" y1="434.953" y2="133.323"/><linearGradient id="SVGID_13_" gradientUnits="userSpaceOnUse" x1="182.672" x2="376.421" y1="403.624" y2="209.875"><stop offset="0" stop-color="#ffcb00"/><stop offset=".5" stop-color="#fff200"/><stop offset="1" stop-color="#fff"/></linearGradient><g><circle cx="256" cy="256" fill="url(#SVGID_1_)" r="256"/><circle cx="256" cy="256" fill="url(#SVGID_2_)" r="256"/><path d="m205.389 441.382c2.275 6.771 4.546 13.543 6.809 20.317 2.11 6.305 7.879 10.644 14.334 10.729 19.642.263 39.284.263 58.927 0 6.455-.086 12.224-4.425 14.334-10.729 2.264-6.773 4.534-13.546 6.809-20.317-16.767-9.895-33.644-20.008-50.607-30.258-16.962 10.25-33.839 20.364-50.606 30.258z" fill="url(#SVGID_3_)"/><path d="m271.32 339.355c-.046 34.158-.119 68.318-.221 102.476 11.834-.069 23.669-.218 35.503-.448 8.334-.165 15.185-7.194 15.29-15.644.171-8.457.832-86.736.769-86.736-17.114.191-34.227.307-51.341.352z" fill="url(#SVGID_4_)"/><path d="m190.1 425.738c.105 8.45 6.955 15.479 15.29 15.644 21.903.426 43.807.575 65.71.448 8.334-.049 15.136-7.01 15.187-15.492.079-8.483.383-87.041.354-87.042-32.436.166-64.873.068-97.309-.293-.064 0 .596 78.282.768 86.735z" fill="url(#SVGID_5_)"/><path d="m189.33 339.003c-.063 0 .598 78.282.769 86.735.105 8.45 6.956 15.479 15.29 15.644 33.738.656 67.475.656 101.213 0 8.334-.165 15.185-7.194 15.29-15.644.171-8.457.832-86.736.769-86.736-44.444.496-88.887.496-133.331.001z" fill="url(#SVGID_6_)"/><path d="m128.131 110.725c-17.323 25.281-27.834 55.051-28.149 86.776-.445 42.045 17.21 80.121 45.635 108.448 6.441 6.406 12.883 12.832 19.321 19.272 5.791 5.79 9.07 13.604 9.134 21.705.086 10.87.187 21.739.303 32.609.094 8.428 6.991 15.43 15.393 15.591 44.155.831 88.31.831 132.465 0 8.402-.16 15.299-7.163 15.393-15.591.116-10.87.217-21.739.303-32.609.064-8.102 3.343-15.913 9.134-21.705 6.439-6.44 12.88-12.867 19.321-19.272 21.792-21.695 37.261-49.219 43.075-79.762-94.438-39.039-188.888-80.647-281.328-115.462z" fill="url(#SVGID_7_)"/><path d="m409.459 226.186c1.769-9.291 2.658-18.87 2.56-28.686-.052-5.254-.384-10.452-.979-15.583-67.03-45.134-133.835-92.028-198.55-135.333-34.215 11.01-63.94 34.434-84.359 64.14 9.354 13.803 20.304 26.997 32.846 39.376 66.652 65.966 161.196 92.096 248.482 76.086z" fill="url(#SVGID_8_)"/><path d="m411.04 181.918c-9.295-76.464-76.583-141.95-155.04-142.197-15.096-.001-29.678 2.418-43.51 6.863 5.194 32.496 20.2 63.537 45.203 88.731 41.377 41.785 99.96 56.978 153.347 46.603z" fill="url(#SVGID_9_)"/><path d="m147.526 135.812c-10.5 18.296-16.677 39.121-16.852 61.168-.278 32.984 12.8 63.932 36.577 87.614 6.427 6.395 12.855 12.808 19.282 19.232 11.644 11.633 18.075 27.091 18.154 43.475.029 5.803.06 11.606.094 17.41 6.886.078 13.772.14 20.658.186 10.169-5.052 20.357-10.147 30.56-15.272 10.203 5.125 20.391 10.22 30.56 15.272 6.886-.046 13.772-.108 20.658-.186.034-5.803.065-11.606.094-17.41.079-16.385 6.51-31.84 18.154-43.476 6.427-6.423 12.855-12.836 19.281-19.23 15.591-15.518 26.593-34.208 32.229-54.502-76.856-31.809-153.703-64.919-229.449-94.281z" fill="url(#SVGID_10_)"/><path d="m376.977 230.092c2.958-10.653 4.44-21.755 4.349-33.112-.032-4.026-.27-8.012-.691-11.948-54.021-36.414-107.857-73.652-160.528-108.901-30.598 9.871-56.564 31.843-72.581 59.681 4.263 4.868 8.74 9.639 13.451 14.288 58.421 57.715 138.415 85.256 216 79.992z" fill="url(#SVGID_11_)"/><path d="m380.635 185.032c-6.904-62.336-60.944-114.435-124.635-114.561-12.466-.001-24.505 1.993-35.893 5.66 7.787 21.551 20.306 41.769 37.585 59.184 33.624 33.914 78.618 50.397 122.943 49.717z" fill="url(#SVGID_12_)"/><path d="m286.706 308.575c.032-16.962-13.725-30.695-30.706-30.7-16.98.005-30.738 13.74-30.706 30.7.032 18.774.08 37.548.146 56.322 20.374.137 40.747.137 61.121 0 .065-18.774.114-37.548.145-56.322z" fill="url(#SVGID_13_)"/></g></svg>