<svg id="Capa_1" enable-background="new 0 0 512 512" height="512" viewBox="0 0 512 512" width="512" xmlns="http://www.w3.org/2000/svg" xmlns:xlink="http://www.w3.org/1999/xlink"><linearGradient id="SVGID_1_" gradientUnits="userSpaceOnUse" x1="74.981" x2="437.02" y1="437.019" y2="74.98"><stop offset="0" stop-color="#ff4031"/><stop offset="1" stop-color="#ff9ceb"/></linearGradient><radialGradient id="SVGID_2_" cx="256.001" cy="256" gradientUnits="userSpaceOnUse" r="276.608"><stop offset="0" stop-color="#ff4031"/><stop offset=".1093" stop-color="#ff453c" stop-opacity=".891"/><stop offset=".2991" stop-color="#ff5358" stop-opacity=".701"/><stop offset=".5467" stop-color="#ff6a86" stop-opacity=".453"/><stop offset=".8392" stop-color="#ff89c5" stop-opacity=".161"/><stop offset="1" stop-color="#ff9ceb" stop-opacity="0"/></radialGradient><linearGradient id="SVGID_3_" gradientUnits="userSpaceOnUse" x1="58.738" x2="449.135" y1="452.865" y2="62.468"><stop offset="0" stop-color="#ff9caf"/><stop offset=".172" stop-color="#ffaabc"/><stop offset=".7183" stop-color="#ffd3e2"/><stop offset="1" stop-color="#ffe3f1"/></linearGradient><radialGradient id="SVGID_4_" cx="256" cy="256.375" gradientUnits="userSpaceOnUse" r="172.367"><stop offset=".257" stop-color="#ff9caf" stop-opacity=".6"/><stop offset=".4597" stop-color="#ffa4b8" stop-opacity=".436"/><stop offset=".7886" stop-color="#ffb8d0" stop-opacity=".171"/><stop offset="1" stop-color="#ffc8e3" stop-opacity="0"/></radialGradient><linearGradient id="SVGID_5_" gradientUnits="userSpaceOnUse" x1="134.693" x2="332.408" y1="451.44" y2="253.725"><stop offset="0" stop-color="#ff79a2"/><stop offset=".5076" stop-color="#ff9abd" stop-opacity=".594"/><stop offset=".8753" stop-color="#ffb5d3" stop-opacity=".3"/></linearGradient><radialGradient id="SVGID_6_" cx="256" cy="63.163" gradientUnits="userSpaceOnUse" r="30.479"><stop offset=".1341" stop-color="#ffb5d3" stop-opacity=".3"/><stop offset=".4152" stop-color="#ffa5c6" stop-opacity=".527"/><stop offset=".9607" stop-color="#ff7ca5" stop-opacity=".968"/><stop offset="1" stop-color="#ff79a2"/></radialGradient><linearGradient id="SVGID_7_" gradientUnits="userSpaceOnUse" x1="232.732" x2="377.462" y1="276.977" y2="421.707"><stop offset="0" stop-color="#ffb5d3"/><stop offset=".2249" stop-color="#ffc3dc"/><stop offset=".7031" stop-color="#ffdaeb"/><stop offset="1" stop-color="#ffe3f1"/></linearGradient><radialGradient id="SVGID_8_" cx="259.184" cy="303.426" gradientUnits="userSpaceOnUse" r="142.661"><stop offset="0" stop-color="#ff9caf"/><stop offset=".8003" stop-color="#ffc8e3" stop-opacity="0"/></radialGradient><linearGradient id="SVGID_9_" gradientUnits="userSpaceOnUse" x1="177.511" x2="295.484" y1="394.207" y2="276.234"><stop offset="0" stop-color="#ffceec"/><stop offset=".8637" stop-color="#fffafd"/><stop offset=".9581" stop-color="#fff"/></linearGradient><linearGradient id="SVGID_10_" gradientUnits="userSpaceOnUse" x1="-96.673" x2="312.164" y1="538.53" y2="129.694"><stop offset="0" stop-color="#ffceec"/><stop offset=".9015" stop-color="#fffafd"/><stop offset="1" stop-color="#fff"/></linearGradient><radialGradient id="SVGID_11_" cx="286.144" cy="341.296" gradientUnits="userSpaceOnUse" r="141.852"><stop offset="0" stop-color="#ff9caf" stop-opacity=".6"/><stop offset=".1145" stop-color="#ff9fb3" stop-opacity=".558"/><stop offset=".3667" stop-color="#ffaec5" stop-opacity=".399"/><stop offset=".7518" stop-color="#ffc1db" stop-opacity=".156"/><stop offset="1" stop-color="#ffc8e3" stop-opacity="0"/></radialGradient><linearGradient id="lg1"><stop offset="0" stop-color="#ff79a2"/><stop offset=".5799" stop-color="#ff9abd" stop-opacity=".594"/><stop offset="1" stop-color="#ffb5d3" stop-opacity=".3"/></linearGradient><radialGradient id="SVGID_12_" cx="322.794" cy="381.344" gradientUnits="userSpaceOnUse" r="89.941" xlink:href="#lg1"/><linearGradient id="SVGID_13_" gradientUnits="userSpaceOnUse" x1="203.713" x2="363.189" y1="155.272" y2="-4.204"><stop offset="0" stop-color="#ff9caf"/><stop offset="1" stop-color="#ffc8e3"/></linearGradient><radialGradient id="SVGID_14_" cx="171.813" cy="135.724" gradientUnits="userSpaceOnUse" r="163.452" xlink:href="#lg1"/><g><circle cx="256" cy="256" fill="url(#SVGID_1_)" r="256"/><circle cx="256" cy="256" fill="url(#SVGID_2_)" r="256"/><path d="m401.99 414.5c-.522 16.464-14.514 30.943-30.99 31.887-76.667 4.267-153.333 4.267-230 0-16.477-.945-30.469-15.423-30.99-31.887-3.21-105.667-3.487-211.333-.833-317 .432-16.465 14.445-30.801 31.037-31.609 77.19-3.638 154.38-3.638 231.57 0 16.593.809 30.606 15.145 31.039 31.609 2.654 105.667 2.377 211.333-.833 317z" fill="url(#SVGID_3_)"/><path d="m401.99 414.5c-.522 16.464-14.514 30.943-30.99 31.887-76.667 4.267-153.333 4.267-230 0-16.477-.945-30.469-15.423-30.99-31.887-3.21-105.667-3.487-211.333-.833-317 .432-16.465 14.445-30.801 31.037-31.609 77.19-3.638 154.38-3.638 231.57 0 16.593.809 30.606 15.145 31.039 31.609 2.654 105.667 2.377 211.333-.833 317z" fill="url(#SVGID_4_)"/><path d="m107.379 247.5c.063 55.667.941 111.333 2.631 167 .522 16.464 14.515 30.943 30.99 31.887 76.667 4.267 153.333 4.267 230 0-20.508-1.564-41.058-3.481-61.649-5.715-99.521-11.197-183.129-94.681-201.972-193.172z" fill="url(#SVGID_5_)" opacity=".6"/><path d="m256 93.912c-16.793-.007-30.327-13.604-30.205-30.564.125-16.954 13.659-30.935 30.205-30.936 16.545 0 30.08 13.981 30.205 30.936.122 16.962-13.413 30.557-30.205 30.564z" fill="url(#SVGID_6_)" opacity=".6"/><path d="m373.862 254.625c-.1 53.828-.792 107.656-2.077 161.484-53.698 2.531-107.395 3.301-161.092 2.311 53.194-53.548 108.409-109.77 163.169-163.795z" fill="url(#SVGID_7_)"/><path d="m373.862 254.625c-.1 53.828-.792 107.656-2.077 161.484-53.698 2.531-107.395 3.301-161.092 2.311 53.194-53.548 108.409-109.77 163.169-163.795z" fill="url(#SVGID_8_)"/><path d="m360.239 286.894c-39.458 39.24-78.945 79.309-117.544 118.401-5.772-45.057-11.641-90.11-17.43-135.113 45.022 5.83 90.021 11.517 134.974 16.712z" fill="url(#SVGID_9_)"/><path d="m139.555 96.169c-2.105 106.647-1.885 213.293.66 319.94 23.493 1.107 46.985 1.877 70.478 2.311 12.502.233 23.803-4.822 32.002-13.125 8.194-8.302 13.303-19.854 13.305-32.583 0-18.792 0-37.583 0-56.375-.003-8.492 6.868-15.374 15.344-15.391 18.754-.038 37.508-.147 56.261-.325 12.704-.122 24.254-5.396 32.634-13.727 8.379-8.337 13.6-19.738 13.623-32.269.098-52.819-.374-105.637-1.417-158.456-77.63-3.009-155.26-3.009-232.89 0z" fill="url(#SVGID_10_)"/><path d="m139.555 96.169c-2.105 106.647-1.885 213.293.66 319.94 23.493 1.107 46.985 1.877 70.478 2.311 12.502.233 23.803-4.822 32.002-13.125 8.194-8.302 13.303-19.854 13.305-32.583 0-18.792 0-37.583 0-56.375-.003-8.492 6.868-15.374 15.344-15.391 18.754-.038 37.508-.147 56.261-.325 12.704-.122 24.254-5.396 32.634-13.727 8.379-8.337 13.6-19.738 13.623-32.269.098-52.819-.374-105.637-1.417-158.456-77.63-3.009-155.26-3.009-232.89 0z" fill="url(#SVGID_11_)"/><path d="m343.004 290.296c-12.739-.722-75.442-12.94-75.453-13.003-20.613-3.595-37.779 14.421-35.148 35.186 0-.004 7.44 62.789 8.408 75.571.662 8.689-1.944 16.837-6.258 23.761 2.955-1.848 5.69-4.033 8.142-6.515 8.194-8.302 13.303-19.854 13.305-32.583 0-18.792 0-37.583 0-56.375-.003-8.492 6.868-15.374 15.344-15.391 18.754-.038 37.508-.147 56.261-.325 12.45-.12 23.785-5.196 32.121-13.24-5.202 2.147-10.842 3.293-16.722 2.914z" fill="url(#SVGID_12_)" opacity=".6"/><path d="m334.262 79.67c-7.301-.211-14.601-.393-21.902-.545-6.522-.136-12.347-4.453-14.455-10.753-.721-2.154-1.442-4.308-2.162-6.462-5.863-17.481-21.846-29.504-39.743-29.498-17.898-.006-33.88 12.015-39.744 29.496-.72 2.154-1.441 4.308-2.162 6.462-2.107 6.301-7.934 10.617-14.455 10.753-7.3.152-14.601.334-21.902.545-4.183.121-7.626 3.645-7.693 7.853-.155 10.164-.294 20.328-.419 30.492-.052 4.209 3.324 7.544 7.539 7.458 52.556-1.081 105.113-1.081 157.67 0 4.215.087 7.591-3.25 7.539-7.458-.124-10.164-.264-20.328-.419-30.492-.064-4.208-3.51-7.729-7.692-7.851zm-78.262-1.133c-8.37-.001-15.134-6.84-15.102-15.329.032-8.488 6.794-15.423 15.102-15.421 8.309 0 15.07 6.933 15.102 15.421.031 8.49-6.732 15.328-15.102 15.329z" fill="url(#SVGID_13_)"/><path d="m199.64 79.125c-7.3.152-14.601.334-21.902.545-4.183.121-7.626 3.645-7.693 7.853-.155 10.164-.294 20.328-.419 30.492-.052 4.209 3.324 7.544 7.539 7.458 52.556-1.081 105.113-1.081 157.67 0-48.406-.959-97.055-17.973-135.195-46.348z" fill="url(#SVGID_14_)" opacity=".6"/></g></svg>