<svg id="Capa_1" enable-background="new 0 0 512 512" height="512" viewBox="0 0 512 512" width="512" xmlns="http://www.w3.org/2000/svg" xmlns:xlink="http://www.w3.org/1999/xlink"><linearGradient id="SVGID_1_" gradientUnits="userSpaceOnUse" x1="74.981" x2="437.02" y1="437.02" y2="74.982"><stop offset="0" stop-color="#ff6e70"/><stop offset="1" stop-color="#fffa78"/></linearGradient><radialGradient id="SVGID_2_" cx="255.325" cy="396.62" gradientUnits="userSpaceOnUse" r="399.311"><stop offset="0" stop-color="#ff6e70" stop-opacity=".6"/><stop offset=".4551" stop-color="#ffb137" stop-opacity=".327"/><stop offset=".8189" stop-color="#ffe00f" stop-opacity=".109"/><stop offset="1" stop-color="#fff200" stop-opacity="0"/></radialGradient><linearGradient id="lg1"><stop offset="0" stop-color="#ff4d5f"/><stop offset="1" stop-color="#ffe057"/></linearGradient><linearGradient id="SVGID_3_" gradientUnits="userSpaceOnUse" x1="105.156" x2="450.066" xlink:href="#lg1" y1="260.306" y2="-84.604"/><linearGradient id="SVGID_4_" gradientUnits="userSpaceOnUse" x1="170.125" x2="390.923" xlink:href="#lg1" y1="242.284" y2="21.487"/><linearGradient id="lg2"><stop offset="0" stop-color="#ff8c00"/><stop offset=".1405" stop-color="#ffa12f"/><stop offset=".3784" stop-color="#ffc278"/><stop offset=".592" stop-color="#ffdcb2"/><stop offset=".7733" stop-color="#ffefdc"/><stop offset=".915" stop-color="#fffbf5"/><stop offset="1" stop-color="#fff"/></linearGradient><linearGradient id="SVGID_5_" gradientTransform="matrix(1 0 0 -1 0 512.001)" gradientUnits="userSpaceOnUse" x1="135.29" x2="553.537" xlink:href="#lg2" y1="28.015" y2="446.263"/><linearGradient id="lg3"><stop offset="0" stop-color="#ff6e70" stop-opacity=".6"/><stop offset=".2563" stop-color="#ff8c57" stop-opacity=".446"/><stop offset=".8107" stop-color="#ffd717" stop-opacity=".114"/><stop offset="1" stop-color="#fff200" stop-opacity="0"/></linearGradient><radialGradient id="SVGID_6_" cx="363.492" cy="229.07" gradientTransform="matrix(1 0 0 -1 0 512.001)" gradientUnits="userSpaceOnUse" r="87.104" xlink:href="#lg3"/><linearGradient id="SVGID_7_" gradientTransform="matrix(1 0 0 -1 0 512.001)" gradientUnits="userSpaceOnUse" x1="141.733" x2="460.443" xlink:href="#lg2" y1="-16.398" y2="302.313"/><linearGradient id="SVGID_8_" gradientTransform="matrix(1 0 0 -1 0 512.001)" gradientUnits="userSpaceOnUse" x1="-40.956" x2="579.37" xlink:href="#lg2" y1="-220.843" y2="399.484"/><linearGradient id="SVGID_9_" gradientTransform="matrix(-1 0 0 -1 2960 512.001)" gradientUnits="userSpaceOnUse" x1="2991.497" x2="2628.765" xlink:href="#lg2" y1="123.638" y2="486.37"/><radialGradient id="SVGID_10_" cx="2811.492" cy="229.07" gradientTransform="matrix(-1 0 0 -1 2960 512.001)" gradientUnits="userSpaceOnUse" r="87.104" xlink:href="#lg3"/><linearGradient id="SVGID_11_" gradientTransform="matrix(-1 0 0 -1 3096 512.001)" gradientUnits="userSpaceOnUse" x1="3158.219" x2="2831.476" xlink:href="#lg2" y1="64.857" y2="391.599"/><linearGradient id="SVGID_12_" gradientTransform="matrix(-1 0 0 -1 3096 512.001)" gradientUnits="userSpaceOnUse" x1="3244.98" x2="2721.519" xlink:href="#lg2" y1="-134.178" y2="389.283"/><linearGradient id="SVGID_13_" gradientTransform="matrix(1 0 0 -1 0 512.001)" gradientUnits="userSpaceOnUse" x1="25.457" x2="614.968" xlink:href="#lg2" y1="-138.967" y2="450.544"/><linearGradient id="SVGID_14_" gradientTransform="matrix(-1 0 0 -1 2960 512.001)" gradientUnits="userSpaceOnUse" x1="2967.391" x2="2610.058" y1="-43.266" y2="314.067"><stop offset="0" stop-color="#ff8c00"/><stop offset=".0933" stop-color="#ff991c"/><stop offset=".4314" stop-color="#ffc47c"/><stop offset=".7052" stop-color="#ffe4c2"/><stop offset=".901" stop-color="#fff7ee"/><stop offset="1" stop-color="#fff"/></linearGradient><g><circle cx="256" cy="256" fill="url(#SVGID_1_)" r="256"/><circle cx="256" cy="256" fill="url(#SVGID_2_)" r="256"/><path d="m256 56.421c-11.691-14.597-29.318-23.839-49.12-23.503-34.904.627-64.044 30.641-64.757 66.096-1.679 80.33 113.902 146.77 113.877 146.951-.032.037 54.308-31.519 87.931-76.938-29.595-37.498-59.079-75.24-87.931-112.606z" fill="url(#SVGID_3_)"/><path d="m305.12 32.918c-19.802-.337-37.429 8.907-49.12 23.503-.105 54.414 37.303 99.946 87.931 112.606 15.415-20.841 26.407-44.564 25.946-70.013-.714-35.456-29.853-65.468-64.757-66.096z" fill="url(#SVGID_4_)"/><path d="m364.603 289.985c.111-35.575.024-71.15-.26-106.725-.096-12.638 10.071-22.723 22.743-22.475 12.671.25 23.104 10.633 23.252 23.141.405 35.266.529 70.532.371 105.798-15.369.102-30.737.189-46.106.261z" fill="url(#SVGID_5_)"/><path d="m364.603 289.985c.111-35.575.024-71.15-.26-106.725-.096-12.638 10.071-22.723 22.743-22.475 12.671.25 23.104 10.633 23.252 23.141.405 35.266.529 70.532.371 105.798-15.369.102-30.737.189-46.106.261z" fill="url(#SVGID_6_)"/><path d="m434.698 313.781c-18.566 30.082-37.281 60.551-55.928 91.209 10.718-55.773 21.112-111.284 30.788-166.43-.097-30.236-.4-60.472-.907-90.708 2.696-1.052 5.661-1.594 8.785-1.51 12.65.353 23.125 10.748 23.337 23.159.671 40.346.893 80.691.667 121.037-.045 8.154-2.381 16.177-6.742 23.243z" fill="url(#SVGID_7_)"/><path d="m417.804 168.973c.588 40.581.782 81.162.584 121.743-.041 8.202-1.515 16.262-4.258 23.336-11.677 30.119-23.509 60.457-35.359 90.938 2.458 12.976 4.87 25.931 7.231 38.863-37.516 27.089-82.108 43.73-130.001 43.697-15-20.158-30.199-40.431-45.519-60.727 60.66-49.986 122.97-101.945 184.904-152.165.07-35.381-.114-70.762-.551-106.143-.116-9.463 5.594-17.454 13.816-20.663 5.233 3.551 9.015 11.709 9.153 21.121z" fill="url(#SVGID_8_)"/><path d="m147.397 289.985c-.111-35.575-.024-71.15.26-106.725.096-12.638-10.071-22.723-22.743-22.475-12.671.25-23.104 10.633-23.252 23.141-.405 35.266-.529 70.532-.371 105.798 15.369.102 30.737.189 46.106.261z" fill="url(#SVGID_9_)"/><path d="m147.397 289.985c-.111-35.575-.024-71.15.26-106.725.096-12.638-10.071-22.723-22.743-22.475-12.671.25-23.104 10.633-23.252 23.141-.405 35.266-.529 70.532-.371 105.798 15.369.102 30.737.189 46.106.261z" fill="url(#SVGID_10_)"/><path d="m77.302 313.781c18.566 30.082 37.281 60.551 55.928 91.209-10.717-55.773-21.112-111.284-30.788-166.43.097-30.236.4-60.472.907-90.708-2.696-1.052-5.661-1.594-8.785-1.51-12.65.353-23.126 10.748-23.337 23.159-.671 40.346-.893 80.691-.667 121.037.046 8.154 2.381 16.177 6.742 23.243z" fill="url(#SVGID_11_)"/><path d="m94.197 168.973c-.588 40.581-.782 81.162-.584 121.743.04 8.202 1.516 16.262 4.258 23.336 11.677 30.119 23.509 60.457 35.36 90.938-2.458 12.976-4.87 25.931-7.231 38.863 37.516 27.089 82.108 43.73 130.001 43.697 0-9.908 0-19.817 0-29.725-10.061-31.836-20.305-63.717-30.598-95.578-36.124-29.293-72.517-58.733-108.787-87.589-.07-35.381.114-70.762.551-106.143.115-9.463-5.593-17.454-13.816-20.663-5.234 3.551-9.017 11.709-9.154 21.121z" fill="url(#SVGID_12_)"/><path d="m388.585 290.782c-23.797 23.558-47.649 47.396-71.388 71.259-.067 11.306-.146 22.612-.235 33.918-.331 33.829-27.699 61.852-60.962 61.865-5.031-12.541-10.097-25.094-15.189-37.651 5.03-14.15 10.098-28.313 15.189-42.484-.001-12.234 4.832-23.964 13.464-32.626 28.773-28.883 57.73-57.869 86.566-86.499 9.002-8.945 23.604-8.888 32.615.008 9.014 8.899 8.981 23.26-.06 32.21z" fill="url(#SVGID_13_)"/><path d="m123.416 290.782c23.797 23.558 47.649 47.396 71.388 71.259.067 11.306.146 22.612.235 33.918.331 33.829 27.698 61.852 60.962 61.865 0-26.712 0-53.423 0-80.135.001-12.234-4.832-23.964-13.464-32.626-28.773-28.883-57.73-57.869-86.566-86.499-9.003-8.945-23.604-8.888-32.615.008-9.014 8.899-8.982 23.26.06 32.21z" fill="url(#SVGID_14_)"/></g></svg>