<svg id="Capa_1" enable-background="new 0 0 512 512" height="512" viewBox="0 0 512 512" width="512" xmlns="http://www.w3.org/2000/svg" xmlns:xlink="http://www.w3.org/1999/xlink"><linearGradient id="SVGID_1_" gradientUnits="userSpaceOnUse" x1="74.981" x2="437.019" y1="437.019" y2="74.981"><stop offset="0" stop-color="#0072ff"/><stop offset="1" stop-color="#00deb0"/></linearGradient><radialGradient id="SVGID_2_" cx="256" cy="256" gradientUnits="userSpaceOnUse" r="256"><stop offset=".1397" stop-color="#0072ff"/><stop offset=".2751" stop-color="#007af9" stop-opacity=".843"/><stop offset=".4852" stop-color="#0090e9" stop-opacity=".598"/><stop offset=".7427" stop-color="#00b3cf" stop-opacity=".299"/><stop offset="1" stop-color="#00deb0" stop-opacity="0"/></radialGradient><linearGradient id="lg1"><stop offset="0" stop-color="#00babd"/><stop offset=".2238" stop-color="#37c9cb"/><stop offset=".6035" stop-color="#8ee0e2"/><stop offset=".871" stop-color="#c6eff0"/><stop offset="1" stop-color="#dbf5f6"/></linearGradient><linearGradient id="SVGID_3_" gradientUnits="userSpaceOnUse" x1="198.227" x2="361.635" xlink:href="#lg1" y1="251.099" y2="87.691"/><linearGradient id="lg2"><stop offset="0" stop-color="#80ddde" stop-opacity="0"/><stop offset=".1428" stop-color="#7adade" stop-opacity=".143"/><stop offset=".3386" stop-color="#68d3dd" stop-opacity=".339"/><stop offset=".565" stop-color="#4bc7dc" stop-opacity=".565"/><stop offset=".8125" stop-color="#23b6da" stop-opacity=".813"/><stop offset="1" stop-color="#00a7d8"/></linearGradient><linearGradient id="SVGID_4_" gradientUnits="userSpaceOnUse" x1="256" x2="256" xlink:href="#lg2" y1="221.712" y2="180.077"/><linearGradient id="lg3"><stop offset="0" stop-color="#80ddde"/><stop offset="1" stop-color="#fff"/></linearGradient><linearGradient id="SVGID_5_" gradientUnits="userSpaceOnUse" x1="160.341" x2="434.798" xlink:href="#lg3" y1="227.828" y2="-46.629"/><linearGradient id="lg4"><stop offset="0" stop-color="#00babd"/><stop offset=".1502" stop-color="#3acacc"/><stop offset=".3204" stop-color="#75dadb"/><stop offset=".4849" stop-color="#a7e7e8"/><stop offset=".6392" stop-color="#cdf1f2"/><stop offset=".781" stop-color="#e8f9f9"/><stop offset=".9056" stop-color="#f9fdfd"/><stop offset="1" stop-color="#fff"/></linearGradient><linearGradient id="SVGID_6_" gradientUnits="userSpaceOnUse" x1="101.009" x2="446.042" xlink:href="#lg4" y1="278.785" y2="-66.248"/><linearGradient id="SVGID_7_" gradientUnits="userSpaceOnUse" x1="235.27" x2="428.626" xlink:href="#lg1" y1="195.329" y2="1.973"/><linearGradient id="SVGID_8_" gradientUnits="userSpaceOnUse" x1="266.716" x2="444.145" xlink:href="#lg1" y1="156.171" y2="-21.258"/><linearGradient id="lg5"><stop offset=".0559" stop-color="#00deb0"/><stop offset=".9274" stop-color="#00a7d8"/></linearGradient><radialGradient id="SVGID_9_" cx="186.976" cy="103.103" gradientUnits="userSpaceOnUse" r="35.547" xlink:href="#lg5"/><radialGradient id="SVGID_10_" cx="141.631" cy="104.593" gradientUnits="userSpaceOnUse" r="35.386" xlink:href="#lg5"/><linearGradient id="SVGID_11_" gradientUnits="userSpaceOnUse" x1="198.227" x2="361.635" xlink:href="#lg1" y1="376.448" y2="213.04"/><linearGradient id="SVGID_12_" gradientUnits="userSpaceOnUse" x1="256" x2="256" xlink:href="#lg2" y1="349.446" y2="307.811"/><linearGradient id="SVGID_13_" gradientUnits="userSpaceOnUse" x1="159.503" x2="436.365" xlink:href="#lg3" y1="352.497" y2="75.635"/><linearGradient id="SVGID_14_" gradientUnits="userSpaceOnUse" x1="101.135" x2="444.026" xlink:href="#lg4" y1="403.732" y2="60.841"/><linearGradient id="SVGID_15_" gradientUnits="userSpaceOnUse" x1="234.415" x2="431.858" xlink:href="#lg1" y1="323.501" y2="126.059"/><linearGradient id="SVGID_16_" gradientUnits="userSpaceOnUse" x1="266.512" x2="448.097" xlink:href="#lg1" y1="283.857" y2="102.272"/><radialGradient id="SVGID_17_" cx="185.821" cy="230.517" gradientUnits="userSpaceOnUse" r="35.835" xlink:href="#lg5"/><radialGradient id="SVGID_18_" cx="139.717" cy="230.766" gradientUnits="userSpaceOnUse" r="35.662" xlink:href="#lg5"/><linearGradient id="SVGID_19_" gradientUnits="userSpaceOnUse" x1="160.341" x2="434.799" xlink:href="#lg3" y1="475.489" y2="201.032"/><linearGradient id="SVGID_20_" gradientUnits="userSpaceOnUse" x1="104.61" x2="437.091" xlink:href="#lg4" y1="526.034" y2="193.553"/><linearGradient id="SVGID_21_" gradientUnits="userSpaceOnUse" x1="233.642" x2="431.759" xlink:href="#lg1" y1="450.507" y2="252.39"/><linearGradient id="SVGID_22_" gradientUnits="userSpaceOnUse" x1="265.889" x2="448.219" xlink:href="#lg1" y1="410.877" y2="228.547"/><radialGradient id="SVGID_23_" cx="186.316" cy="357.931" gradientUnits="userSpaceOnUse" r="35.711" xlink:href="#lg5"/><radialGradient id="SVGID_24_" cx="140.538" cy="356.938" gradientUnits="userSpaceOnUse" r="35.543" xlink:href="#lg5"/><g><circle cx="256" cy="256" fill="url(#SVGID_1_)" r="256"/><circle cx="256" cy="256" fill="url(#SVGID_2_)" r="256"/><path d="m140.538 155.064c-.438 25.234-.712 50.468-.821 75.702 77.522-.521 155.044-.521 232.566 0-.11-25.234-.383-50.468-.821-75.702-76.975-2.085-153.949-2.085-230.924 0z" fill="url(#SVGID_3_)"/><path d="m140.538 155.064c-.438 25.234-.712 50.468-.821 75.702 77.522-.521 155.044-.521 232.566 0-.11-25.234-.383-50.468-.821-75.702-76.975-2.085-153.949-2.085-230.924 0z" fill="url(#SVGID_4_)"/><path d="m111.927 91c-.974 26.667-1.713 53.333-2.214 80-.159 8.276 6.599 14.826 15.061 14.653 87.484-1.871 174.969-1.871 262.453 0 8.462.173 15.22-6.377 15.061-14.653-.502-26.667-1.24-53.333-2.214-80-.309-8.275-7.296-15.419-15.573-15.892-85.667-4.811-171.333-4.811-257 0-8.279.473-15.265 7.617-15.574 15.892z" fill="url(#SVGID_5_)"/><path d="m109.713 171c-.159 8.276 6.599 14.826 15.061 14.653 72.674-1.554 145.347-1.817 218.021-.789-82.367-.926-163.648-24.428-231.865-63.864-.498 16.667-.904 33.333-1.217 50z" fill="url(#SVGID_6_)"/><path d="m232.32 102.351c-.091 17.072-.166 34.144-.227 51.216 46.456-.261 92.912.238 139.368 1.497-.292-16.823-.657-33.645-1.095-50.468-46.015-1.888-92.03-2.636-138.046-2.245z" fill="url(#SVGID_7_)"/><path d="m232.32 102.351c-.063 11.951-.12 23.901-.168 35.852 46.342-.3 92.685.274 139.027 1.721-.235-11.776-.506-23.552-.812-35.328-46.016-1.888-92.031-2.636-138.047-2.245z" fill="url(#SVGID_8_)"/><path d="m202.091 102.771c-.097 8.466-6.961 15.439-15.341 15.623-8.38.181-15.054-6.457-14.889-14.874.166-8.416 7.053-15.474 15.364-15.705 8.313-.232 14.963 6.491 14.866 14.956z" fill="url(#SVGID_9_)"/><path d="m156.747 104.017c-.184 8.4-7.109 15.417-15.489 15.719-8.379.301-14.992-6.161-14.74-14.479.252-8.317 7.217-15.419 15.528-15.801 8.312-.384 14.884 6.162 14.701 14.561z" fill="url(#SVGID_10_)"/><path d="m139.717 281.234c.109 25.234.383 50.468.821 75.702 76.974 2.085 153.949 2.085 230.924 0 .438-25.234.711-50.468.821-75.702-77.522.521-155.044.521-232.566 0z" fill="url(#SVGID_11_)"/><path d="m139.717 281.234c.109 25.234.383 50.468.821 75.702 76.974 2.085 153.949 2.085 230.924 0 .438-25.234.711-50.468.821-75.702-77.522.521-155.044.521-232.566 0z" fill="url(#SVGID_12_)"/><path d="m109.09 216c-.236 26.667-.236 53.333 0 80 .074 8.276 7.028 15.123 15.498 15.272 87.608 1.47 175.217 1.47 262.825 0 8.47-.15 15.422-6.997 15.498-15.272.236-26.667.236-53.333 0-80-.074-8.276-7.029-15.123-15.498-15.272-87.608-1.47-175.217-1.47-262.825 0-8.47.149-15.423 6.996-15.498 15.272z" fill="url(#SVGID_13_)"/><path d="m109.09 296c.074 8.276 7.028 15.123 15.498 15.272 72.777 1.221 145.553 1.428 218.33.62-82.453 1.201-163.604-23.426-233.993-65.893-.038 16.668.017 33.334.165 50.001z" fill="url(#SVGID_14_)"/><path d="m231.924 230.392c-.015 17.072-.015 34.144 0 51.216 46.786.065 93.573-.06 140.359-.374.073-16.823.073-33.645 0-50.468-46.786-.315-93.573-.439-140.359-.374z" fill="url(#SVGID_15_)"/><path d="m231.924 230.392c-.011 11.951-.014 23.901-.01 35.852 46.805.026 93.609-.024 140.414-.15.02-11.776.005-23.552-.046-35.328-46.785-.315-93.572-.439-140.358-.374z" fill="url(#SVGID_16_)"/><path d="m201.188 230.462c-.017 8.466-6.905 15.335-15.396 15.345-8.491.009-15.368-6.804-15.34-15.22.027-8.416 6.94-15.299 15.419-15.359 8.481-.059 15.333 6.769 15.317 15.234z" fill="url(#SVGID_17_)"/><path d="m155.085 230.669c-.031 8.399-6.922 15.22-15.414 15.237-8.49.016-15.364-6.712-15.322-15.03s6.974-15.152 15.453-15.251c8.481-.097 15.313 6.645 15.283 15.044z" fill="url(#SVGID_18_)"/><path d="m109.713 341c.502 26.667 1.24 53.333 2.214 80 .309 8.275 7.296 15.42 15.573 15.892 85.667 4.811 171.333 4.811 257 0 8.278-.472 15.264-7.616 15.573-15.892.974-26.667 1.713-53.333 2.214-80 .159-8.277-6.599-14.826-15.061-14.653-87.484 1.871-174.969 1.871-262.453 0-8.461-.173-15.22 6.377-15.06 14.653z" fill="url(#SVGID_19_)"/><path d="m111.927 421c.309 8.275 7.296 15.419 15.573 15.892 71.164 3.997 142.327 4.673 213.491 2.03-80.592 3.327-159.706-22.423-230.614-67.921.424 16.666.941 33.332 1.55 49.999z" fill="url(#SVGID_20_)"/><path d="m232.094 358.433c.06 17.072.136 34.144.227 51.216 46.016.391 92.031-.358 138.046-2.245.438-16.823.803-33.645 1.095-50.468-46.456 1.259-92.912 1.758-139.368 1.497z" fill="url(#SVGID_21_)"/><path d="m232.094 358.433c.042 11.951.092 23.901.149 35.852 46.166.352 92.332-.322 138.498-2.021.276-11.776.516-23.552.72-35.328-46.455 1.259-92.911 1.758-139.367 1.497z" fill="url(#SVGID_22_)"/><path d="m201.575 358.153c.064 8.465-6.686 15.23-15.089 15.067-8.402-.163-15.319-7.15-15.43-15.566-.11-8.417 6.665-15.125 15.113-15.013 8.449.114 15.341 7.045 15.406 15.512z" fill="url(#SVGID_23_)"/><path d="m155.797 357.322c.122 8.399-6.574 15.023-14.977 14.754-8.402-.269-15.374-7.264-15.542-15.581-.168-8.319 6.568-14.886 15.016-14.7 8.449.189 15.38 7.127 15.503 15.527z" fill="url(#SVGID_24_)"/></g></svg>