<svg id="Capa_1" enable-background="new 0 0 512 512" height="512" viewBox="0 0 512 512" width="512" xmlns="http://www.w3.org/2000/svg" xmlns:xlink="http://www.w3.org/1999/xlink"><linearGradient id="lg1"><stop offset="0" stop-color="#8d00db"/><stop offset="1" stop-color="#fc54ff"/></linearGradient><linearGradient id="SVGID_1_" gradientUnits="userSpaceOnUse" x1="74.981" x2="437.019" xlink:href="#lg1" y1="437.019" y2="74.981"/><radialGradient id="SVGID_2_" cx="262.085" cy="248.901" gradientUnits="userSpaceOnUse" r="258.6"><stop offset=".4461" stop-color="#8d00db" stop-opacity=".66"/><stop offset="1" stop-color="#fc54ff" stop-opacity="0"/></radialGradient><linearGradient id="SVGID_3_" gradientUnits="userSpaceOnUse" x1="42.62" x2="348.682" y1="469.38" y2="163.319"><stop offset="0" stop-color="#fc54ff"/><stop offset=".1247" stop-color="#fc61ff"/><stop offset=".3567" stop-color="#fd84ff"/><stop offset=".6706" stop-color="#febdff"/><stop offset="1" stop-color="#fff"/></linearGradient><radialGradient id="SVGID_4_" cx="214.974" cy="302.583" gradientUnits="userSpaceOnUse" r="277.434"><stop offset=".2265" stop-color="#b31de7"/><stop offset=".2707" stop-color="#ba2ae9" stop-opacity=".943"/><stop offset=".433" stop-color="#d254f1" stop-opacity=".733"/><stop offset=".591" stop-color="#e575f7" stop-opacity=".529"/><stop offset=".7415" stop-color="#f28dfb" stop-opacity=".334"/><stop offset=".8813" stop-color="#fa9bfe" stop-opacity=".154"/><stop offset="1" stop-color="#fda0ff" stop-opacity="0"/></radialGradient><linearGradient id="lg2"><stop offset="0" stop-color="#fc54ff"/><stop offset=".1964" stop-color="#fd80ff"/><stop offset=".4669" stop-color="#feb6ff"/><stop offset=".7008" stop-color="#fedeff"/><stop offset=".8862" stop-color="#fff6ff"/><stop offset="1" stop-color="#fff"/></linearGradient><linearGradient id="SVGID_5_" gradientUnits="userSpaceOnUse" x1="-11.584" x2="490.08" xlink:href="#lg2" y1="523.584" y2="21.92"/><linearGradient id="SVGID_6_" gradientUnits="userSpaceOnUse" x1="114.097" x2="492.692" y1="402.163" y2="23.569"><stop offset="0" stop-color="#fc54ff"/><stop offset=".1964" stop-color="#fd80ff" stop-opacity=".804"/><stop offset=".4669" stop-color="#feb6ff" stop-opacity=".533"/><stop offset=".7008" stop-color="#fedeff" stop-opacity=".299"/><stop offset=".8862" stop-color="#fff6ff" stop-opacity=".114"/><stop offset="1" stop-color="#fff" stop-opacity="0"/></linearGradient><linearGradient id="SVGID_7_" gradientUnits="userSpaceOnUse" x1="158.759" x2="400.158" xlink:href="#lg2" y1="348.547" y2="107.148"/><linearGradient id="SVGID_8_" gradientTransform="matrix(-1 0 0 -1 527.91 473.59)" gradientUnits="userSpaceOnUse" x1="256" x2="256" xlink:href="#lg1" y1="280.655" y2="166.039"/><linearGradient id="SVGID_9_" gradientTransform="matrix(-1 0 0 -1 527.91 473.59)" gradientUnits="userSpaceOnUse" x1="331" x2="331" xlink:href="#lg1" y1="280.655" y2="166.039"/><linearGradient id="SVGID_10_" gradientTransform="matrix(-1 0 0 -1 527.91 473.59)" gradientUnits="userSpaceOnUse" x1="181" x2="181" xlink:href="#lg1" y1="280.655" y2="166.039"/><g><circle cx="256" cy="256" fill="url(#SVGID_1_)" r="256"/><circle cx="256" cy="256" fill="url(#SVGID_2_)" r="256"/><path d="m117.242 308.926c-9.124 31.213-18.257 62.15-25.69 92.344-2.687 11.036 8.142 21.866 19.178 19.178 30.194-7.434 61.131-16.566 92.344-25.69-28.025-27.523-58.309-57.807-85.832-85.832z" fill="url(#SVGID_3_)"/><path d="m117.242 308.926c-9.124 31.213-18.257 62.15-25.69 92.344-2.687 11.036 8.142 21.866 19.178 19.178 30.194-7.434 61.131-16.566 92.344-25.69-28.025-27.523-58.309-57.807-85.832-85.832z" fill="url(#SVGID_4_)"/><path d="m271.91 51.59c-104.106 0-188.5 84.394-188.5 188.5s84.394 188.5 188.5 188.5 188.5-84.394 188.5-188.5-84.394-188.5-188.5-188.5z" fill="url(#SVGID_5_)"/><path d="m271.91 428.59c15.964 0 31.46-1.993 46.264-5.728 0-120.674-97.826-218.5-218.5-218.5-4.346 0-8.659.142-12.943.392-2.171 11.448-3.321 23.257-3.321 35.336 0 104.106 84.394 188.5 188.5 188.5z" fill="url(#SVGID_6_)"/><path d="m458.167 210.956c-12.959-83.521-80.749-148.902-165.421-158.214 20.722 79.254 84.827 140.951 165.421 158.214z" fill="url(#SVGID_7_)"/><path d="m271.91 262.59c12.426 0 22.5-10.074 22.5-22.5s-10.074-22.5-22.5-22.5-22.5 10.074-22.5 22.5 10.073 22.5 22.5 22.5z" fill="url(#SVGID_8_)"/><path d="m196.91 262.59c12.426 0 22.5-10.074 22.5-22.5s-10.074-22.5-22.5-22.5-22.5 10.074-22.5 22.5 10.073 22.5 22.5 22.5z" fill="url(#SVGID_9_)"/><path d="m346.91 262.59c12.426 0 22.5-10.074 22.5-22.5s-10.074-22.5-22.5-22.5-22.5 10.074-22.5 22.5 10.073 22.5 22.5 22.5z" fill="url(#SVGID_10_)"/></g></svg>