<svg id="Capa_1" enable-background="new 0 0 512 512" height="512" viewBox="0 0 512 512" width="512" xmlns="http://www.w3.org/2000/svg" xmlns:xlink="http://www.w3.org/1999/xlink"><linearGradient id="SVGID_1_" gradientUnits="userSpaceOnUse" x1="74.981" x2="437.019" y1="437.019" y2="74.981"><stop offset="0" stop-color="#364aff"/><stop offset="1" stop-color="#fc54ff"/></linearGradient><radialGradient id="SVGID_2_" cx="256" cy="256" gradientUnits="userSpaceOnUse" r="258.6"><stop offset=".095" stop-color="#8d00db" stop-opacity=".66"/><stop offset=".2822" stop-color="#9f0de1" stop-opacity=".523"/><stop offset=".6541" stop-color="#cc30f0" stop-opacity=".252"/><stop offset="1" stop-color="#fc54ff" stop-opacity="0"/></radialGradient><linearGradient id="SVGID_3_" gradientUnits="userSpaceOnUse" x1="92.1" x2="378.246" y1="517.811" y2="231.665"><stop offset="0" stop-color="#b31de7"/><stop offset="1" stop-color="#fda0ff"/></linearGradient><radialGradient id="SVGID_4_" cx="257.034" cy="291.028" gradientUnits="userSpaceOnUse" r="292.156"><stop offset="0" stop-color="#b31de7"/><stop offset=".147" stop-color="#c238ec" stop-opacity=".853"/><stop offset=".4177" stop-color="#dc65f4" stop-opacity=".582"/><stop offset=".6598" stop-color="#ee85fa" stop-opacity=".34"/><stop offset=".8622" stop-color="#f999fe" stop-opacity=".138"/><stop offset="1" stop-color="#fda0ff" stop-opacity="0"/></radialGradient><linearGradient id="lg1"><stop offset="0" stop-color="#fc54ff"/><stop offset="1" stop-color="#fff"/></linearGradient><linearGradient id="SVGID_5_" gradientUnits="userSpaceOnUse" x1="57.12" x2="437.64" xlink:href="#lg1" y1="454.88" y2="74.36"/><linearGradient id="SVGID_6_" gradientUnits="userSpaceOnUse" x1="186.003" x2="455.665" y1="375.75" y2="106.087"><stop offset="0" stop-color="#fc54ff"/><stop offset=".4062" stop-color="#fd9bff"/><stop offset="1" stop-color="#fff"/></linearGradient><radialGradient id="SVGID_7_" cx="252.882" cy="124.569" gradientUnits="userSpaceOnUse" r="317.329"><stop offset="0" stop-color="#b31de7"/><stop offset=".0576" stop-color="#ba2ae9" stop-opacity=".942"/><stop offset=".2672" stop-color="#d254f1" stop-opacity=".733"/><stop offset=".4713" stop-color="#e575f7" stop-opacity=".529"/><stop offset=".6657" stop-color="#f28dfb" stop-opacity=".334"/><stop offset=".8464" stop-color="#fa9bfe" stop-opacity=".154"/><stop offset="1" stop-color="#fda0ff" stop-opacity="0"/></radialGradient><linearGradient id="SVGID_8_" gradientUnits="userSpaceOnUse" x1="96.98" x2="332.279" y1="320.12" y2="84.821"><stop offset="0" stop-color="#fda0ff"/><stop offset=".3201" stop-color="#febbff"/><stop offset="1" stop-color="#fff"/></linearGradient><linearGradient id="SVGID_9_" gradientUnits="userSpaceOnUse" x1="68.317" x2="320.982" y1="343.488" y2="90.823"><stop offset="0" stop-color="#fda0ff"/><stop offset=".9781" stop-color="#fff"/></linearGradient><linearGradient id="lg2"><stop offset="0" stop-color="#fda0ff"/><stop offset="1" stop-color="#fff"/></linearGradient><linearGradient id="SVGID_10_" gradientUnits="userSpaceOnUse" x1="187.452" x2="386.908" xlink:href="#lg2" y1="274.796" y2="75.34"/><linearGradient id="SVGID_11_" gradientUnits="userSpaceOnUse" x1="140.532" x2="358.039" xlink:href="#lg2" y1="303.951" y2="86.445"/><linearGradient id="SVGID_12_" gradientUnits="userSpaceOnUse" x1="178.88" x2="351.794" xlink:href="#lg1" y1="333.12" y2="160.206"/><g><circle cx="256" cy="256" fill="url(#SVGID_1_)" r="256"/><circle cx="256" cy="256" fill="url(#SVGID_2_)" r="256"/><path d="m140.861 305.752c-20.786 12.044-41.505 23.915-62.111 35.51-4.465 2.518-7.41 7.236-7.3 12.737.11 5.5 3.242 10.382 7.793 13.129 57.052 34.365 113.74 69.389 169.169 103.011 2.231 1.349 4.817 2.133 7.587 2.135 2.77.001 5.357-.786 7.587-2.135 55.429-33.622 112.117-68.647 169.169-103.011 4.551-2.746 7.683-7.631 7.793-13.129.11-5.499-2.835-10.22-7.3-12.737-20.606-11.595-41.324-23.467-62.111-35.51-76.757.631-153.517.631-230.276 0z" fill="url(#SVGID_3_)"/><path d="m140.861 305.752c-20.786 12.044-41.505 23.915-62.111 35.51-4.465 2.518-7.41 7.236-7.3 12.737.11 5.5 3.242 10.382 7.793 13.129 57.052 34.365 113.74 69.389 169.169 103.011 2.231 1.349 4.817 2.133 7.587 2.135 2.77.001 5.357-.786 7.587-2.135 55.429-33.622 112.117-68.647 169.169-103.011 4.551-2.746 7.683-7.631 7.793-13.129.11-5.499-2.835-10.22-7.3-12.737-20.606-11.595-41.324-23.467-62.111-35.51-76.757.631-153.517.631-230.276 0z" fill="url(#SVGID_4_)"/><path d="m433.939 243.067c-20.917-12.125-41.865-24.432-62.8-36.819-76.759-.631-153.518-.631-230.277 0-20.935 12.387-41.884 24.694-62.8 36.819-4.533 2.633-7.587 7.433-7.587 12.933 0 5.503 3.054 10.3 7.586 12.933 20.917 12.125 41.865 24.432 62.8 36.819 76.759.631 153.518.631 230.277 0 20.935-12.387 41.884-24.694 62.8-36.819 4.532-2.633 7.586-7.432 7.586-12.933.001-5.5-3.053-10.301-7.585-12.933z" fill="url(#SVGID_5_)"/><path d="m225.784 256c-28.358 16.731-56.703 33.401-84.923 49.752 35.92 21.253 71.801 42.74 107.418 63.942 2.269 1.344 4.901 2.131 7.721 2.13 2.82 0 5.452-.784 7.721-2.13 35.617-21.202 71.498-42.689 107.418-63.942-28.22-16.352-56.565-33.021-84.923-49.752-20.144 0-40.288 0-60.432 0z" fill="url(#SVGID_6_)"/><path d="m433.939 243.067c-20.917-12.125-41.865-24.432-62.8-36.819-76.759-.631-153.518-.631-230.277 0-20.935 12.387-41.884 24.694-62.8 36.819-4.533 2.633-7.587 7.433-7.587 12.933 0 5.503 3.054 10.3 7.586 12.933 56.804 32.927 113.842 67.202 170.218 100.761 2.269 1.344 4.901 2.131 7.721 2.13 2.82 0 5.452-.784 7.721-2.13 56.376-33.56 113.414-67.834 170.218-100.761 4.532-2.633 7.586-7.432 7.586-12.933 0-5.5-3.054-10.301-7.586-12.933z" fill="url(#SVGID_7_)"/><path d="m71.451 158c-.11 5.5 2.835 10.218 7.3 12.737 20.606 11.595 41.324 23.467 62.111 35.511 76.759-.631 153.518-.631 230.277 0 20.786-12.044 41.505-23.916 62.111-35.511 4.465-2.517 7.41-7.238 7.3-12.737-123.034-3.267-246.066-3.267-369.099 0z" fill="url(#SVGID_8_)"/><path d="m440.549 158c-.11-5.5-3.242-10.381-7.793-13.129-57.052-34.364-113.74-69.389-169.169-103.011-2.231-1.347-4.816-2.135-7.587-2.135-2.77.001-5.357.787-7.587 2.135-55.429 33.622-112.117 68.647-169.169 103.011-4.551 2.746-7.683 7.63-7.793 13.129-.053 2.641 2.933 4.863 7.415 6.013 51.106 13.072 102.493 27.247 154.007 41.781 15.417-.025 30.835-.025 46.252 0 51.514-14.534 102.902-28.709 154.007-41.781 4.484-1.149 7.47-3.373 7.417-6.013z" fill="url(#SVGID_9_)"/><path d="m341.2 188.483c-56.8-.468-113.601-.468-170.401 0-9.973 5.932-19.954 11.858-29.938 17.765 28.22 16.351 56.565 33.021 84.923 49.752h60.431c28.358-16.731 56.703-33.401 84.923-49.752-9.983-5.907-19.964-11.832-29.938-17.765z" fill="url(#SVGID_10_)"/><path d="m256 140.175c-2.82-.001-5.452.787-7.72 2.13-25.717 15.309-51.572 30.766-77.48 46.177 17.217 4.733 34.456 9.539 51.71 14.392 21.885 6.157 45.096 6.157 66.981 0 17.254-4.852 34.492-9.659 51.71-14.392-25.908-15.411-51.763-30.869-77.48-46.177-2.269-1.345-4.901-2.131-7.721-2.13z" fill="url(#SVGID_11_)"/><path d="m256 240.625c-2.839 0-5.49.783-7.772 2.126-7.481 4.417-14.963 8.835-22.444 13.249 7.481 4.413 14.963 8.832 22.443 13.249 2.283 1.341 4.933 2.126 7.772 2.126s5.49-.783 7.772-2.126c7.481-4.417 14.963-8.835 22.443-13.249-7.481-4.413-14.963-8.832-22.444-13.249-2.28-1.344-4.931-2.126-7.77-2.126z" fill="url(#SVGID_12_)"/></g></svg>