<?xml version="1.0" encoding="iso-8859-1"?>
<!-- Generator: Adobe Illustrator 18.0.0, SVG Export Plug-In . SVG Version: 6.00 Build 0)  -->
<!DOCTYPE svg PUBLIC "-//W3C//DTD SVG 1.1//EN" "http://www.w3.org/Graphics/SVG/1.1/DTD/svg11.dtd">
<svg version="1.1" id="Capa_1" xmlns="http://www.w3.org/2000/svg" xmlns:xlink="http://www.w3.org/1999/xlink" x="0px" y="0px"
	 viewBox="0 0 297 297" style="enable-background:new 0 0 297 297;" xml:space="preserve">
<g>
	<path d="M148.5,0C85.646,0,34.511,51.136,34.511,113.989c0,25.11,8.008,48.926,23.157,68.873
		c13.604,17.914,32.512,31.588,53.658,38.904l27.464,68.659c1.589,3.971,5.434,6.574,9.71,6.574c4.276,0,8.121-2.603,9.71-6.574
		l27.464-68.659c21.146-7.316,40.054-20.99,53.658-38.904c15.149-19.947,23.157-43.763,23.157-68.873
		C262.489,51.136,211.354,0,148.5,0z M174.839,203.279c-3.075,0.906-5.565,3.172-6.756,6.148L148.5,258.384l-19.583-48.956
		c-1.19-2.977-3.681-5.242-6.756-6.148c-39.293-11.57-66.735-48.288-66.735-89.29c0-51.321,41.753-93.073,93.074-93.073
		s93.074,41.752,93.074,93.073C241.574,154.991,214.132,191.709,174.839,203.279z"/>
	<path d="M148.5,51.766c-34.311,0-62.224,27.913-62.224,62.224c0,34.311,27.913,62.224,62.224,62.224s62.224-27.913,62.224-62.224
		C210.724,79.679,182.811,51.766,148.5,51.766z M148.5,155.298c-22.777,0-41.308-18.531-41.308-41.309
		c0-22.777,18.53-41.308,41.308-41.308c22.777,0,41.308,18.53,41.308,41.308C189.808,136.767,171.277,155.298,148.5,155.298z"/>
</g>
<g>
</g>
<g>
</g>
<g>
</g>
<g>
</g>
<g>
</g>
<g>
</g>
<g>
</g>
<g>
</g>
<g>
</g>
<g>
</g>
<g>
</g>
<g>
</g>
<g>
</g>
<g>
</g>
<g>
</g>
</svg>
