<svg id="Capa_1" enable-background="new 0 0 512 512" height="512" viewBox="0 0 512 512" width="512" xmlns="http://www.w3.org/2000/svg" xmlns:xlink="http://www.w3.org/1999/xlink"><linearGradient id="SVGID_1_" gradientUnits="userSpaceOnUse" x1="74.981" x2="437.019" y1="437.019" y2="74.981"><stop offset="0" stop-color="#00aa45"/><stop offset="1" stop-color="#d3ff33"/></linearGradient><radialGradient id="SVGID_2_" cx="256" cy="256" gradientUnits="userSpaceOnUse" r="256"><stop offset="0" stop-color="#00aa45"/><stop offset=".2151" stop-color="#04ac45" stop-opacity=".982"/><stop offset=".3212" stop-color="#03ac45" stop-opacity=".998"/><stop offset=".4211" stop-color="#1bb643" stop-opacity=".851"/><stop offset=".633" stop-color="#5acf3d" stop-opacity=".539"/><stop offset=".9375" stop-color="#bef635" stop-opacity=".092"/><stop offset="1" stop-color="#d3ff33" stop-opacity="0"/></radialGradient><linearGradient id="SVGID_3_" gradientUnits="userSpaceOnUse" x1="-66.416" x2="608.851" y1="578.416" y2="-96.851"><stop offset="0" stop-color="#b8ef5c"/><stop offset=".0294" stop-color="#bbf063"/><stop offset=".2755" stop-color="#d3f59a"/><stop offset=".5041" stop-color="#e6f9c6"/><stop offset=".7082" stop-color="#f4fce5"/><stop offset=".8804" stop-color="#fcfef8"/><stop offset="1" stop-color="#fff"/></linearGradient><linearGradient id="SVGID_4_" gradientUnits="userSpaceOnUse" x1="149.676" x2="520.358" y1="362.324" y2="-8.358"><stop offset="0" stop-color="#84dd39"/><stop offset=".5023" stop-color="#aee567" stop-opacity=".498"/><stop offset="1" stop-color="#d4ed90" stop-opacity="0"/></linearGradient><linearGradient id="SVGID_5_" gradientUnits="userSpaceOnUse" x1="-212.295" x2="361.339" y1="724.296" y2="150.661"><stop offset="0" stop-color="#eaedc2"/><stop offset=".6576" stop-color="#f9faee"/><stop offset="1" stop-color="#fff"/></linearGradient><linearGradient id="SVGID_6_" gradientUnits="userSpaceOnUse" x1="-12.77" x2="397.782" y1="526.653" y2="116.101"><stop offset="0" stop-color="#95e12e"/><stop offset=".1382" stop-color="#a5e34a" stop-opacity=".862"/><stop offset=".4243" stop-color="#c2e77d" stop-opacity=".576"/><stop offset=".6737" stop-color="#d8eaa3" stop-opacity=".326"/><stop offset=".8739" stop-color="#e5ecba" stop-opacity=".126"/><stop offset="1" stop-color="#eaedc2" stop-opacity="0"/></linearGradient><linearGradient id="lg1"><stop offset="0" stop-color="#dbf966"/><stop offset=".101" stop-color="#def777"/><stop offset=".373" stop-color="#e4f1a0"/><stop offset=".5881" stop-color="#e8eeb9"/><stop offset=".7181" stop-color="#eaedc2"/><stop offset="1" stop-color="#f1f3d6"/></linearGradient><linearGradient id="SVGID_7_" gradientTransform="matrix(.707 -.707 -.707 -.707 5448.992 618.039)" gradientUnits="userSpaceOnUse" x1="-3452.201" x2="-3379.8" xlink:href="#lg1" y1="3907.172" y2="3834.771"/><linearGradient id="lg2"><stop offset="0" stop-color="#84dd39"/><stop offset=".4924" stop-color="#a0e74c" stop-opacity=".803"/><stop offset="1" stop-color="#b8ef5c" stop-opacity=".6"/></linearGradient><linearGradient id="SVGID_8_" gradientTransform="matrix(.707 -.707 -.707 -.707 5448.992 618.039)" gradientUnits="userSpaceOnUse" x1="-3416" x2="-3416" xlink:href="#lg2" y1="3928" y2="3805.173"/><linearGradient id="SVGID_9_" gradientUnits="userSpaceOnUse" x1="223.442" x2="288.558" xlink:href="#lg1" y1="238.817" y2="173.702"/><linearGradient id="SVGID_10_" gradientUnits="userSpaceOnUse" x1="256" x2="256" xlink:href="#lg2" y1="256" y2="147.35"/><linearGradient id="SVGID_11_" gradientUnits="userSpaceOnUse" x1="232.251" x2="297.907" y1="279.749" y2="214.093"><stop offset="0" stop-color="#eaedc2"/><stop offset="1" stop-color="#fff"/></linearGradient><radialGradient id="SVGID_12_" cx="256" cy="256" gradientUnits="userSpaceOnUse" r="32.737"><stop offset="0" stop-color="#84dd39"/><stop offset=".183" stop-color="#8ade3f"/><stop offset=".4343" stop-color="#9ae151"/><stop offset=".7236" stop-color="#b4e76e"/><stop offset="1" stop-color="#d4ed90"/></radialGradient><g><circle cx="256" cy="256" fill="url(#SVGID_1_)" r="256"/><circle cx="256" cy="256" fill="url(#SVGID_2_)" r="256"/><circle cx="256" cy="256" fill="url(#SVGID_3_)" r="196"/><circle cx="256" cy="256" fill="url(#SVGID_4_)" r="166"/><circle cx="256" cy="256" fill="url(#SVGID_5_)" r="136"/><path d="m271 362c-75.111 0-136-60.889-136-136 0-15.881 2.731-31.123 7.735-45.291-14.36 21.558-22.735 47.445-22.735 75.291 0 75.111 60.889 136 136 136 59.229 0 109.606-37.867 128.265-90.709-24.373 36.594-66 60.709-113.265 60.709z" fill="url(#SVGID_6_)"/><path d="m342.852 342.852c-6.065 6.065-15.676 6.257-21.533.368-24.99-25.097-50.576-50.737-76.189-76.35 7.245-7.245 14.496-14.496 21.74-21.74 25.613 25.613 51.253 51.199 76.35 76.189 5.888 5.857 5.697 15.468-.368 21.533z" fill="url(#SVGID_7_)"/><path d="m321.319 343.22c-24.99-25.097-50.576-50.737-76.189-76.35 7.245-7.245 14.496-14.496 21.74-21.74 25.613 25.613 51.253 51.199 76.35 76.189 5.889 5.858 5.697 15.468-.368 21.534-6.065 6.064-15.676 6.256-21.533.367z" fill="url(#SVGID_8_)"/><path d="m256 147.35c-8.358 0-15.17 6.916-15.207 15.403-.112 31.082-.168 62.165-.168 93.247h30.75c0-31.082-.056-62.165-.168-93.247-.036-8.488-6.85-15.403-15.207-15.403z" fill="url(#SVGID_9_)"/><path d="m240.793 162.753c-.112 31.082-.168 62.165-.168 93.247h30.75c0-31.082-.056-62.165-.168-93.247-.036-8.487-6.85-15.403-15.207-15.403-8.358 0-15.17 6.916-15.207 15.403z" fill="url(#SVGID_10_)"/><path d="m279.063 256c-.001 12.725-10.338 23.061-23.063 23.062-12.723-.002-23.061-10.337-23.063-23.062 0-12.725 10.339-23.061 23.063-23.062 12.725.001 23.06 10.337 23.063 23.062z" fill="url(#SVGID_11_)"/><path d="m263.688 256c0 4.245-3.442 7.687-7.688 7.688-4.246 0-7.686-3.442-7.688-7.688 0-4.245 3.442-7.687 7.688-7.687s7.688 3.442 7.688 7.687z" fill="url(#SVGID_12_)"/></g></svg>