<svg id="Capa_1" enable-background="new 0 0 512 512" height="512" viewBox="0 0 512 512" width="512" xmlns="http://www.w3.org/2000/svg" xmlns:xlink="http://www.w3.org/1999/xlink"><linearGradient id="lg1"><stop offset="0" stop-color="#560dff"/><stop offset="1" stop-color="#73ecff"/></linearGradient><linearGradient id="SVGID_1_" gradientUnits="userSpaceOnUse" x1="74.98" x2="437.019" xlink:href="#lg1" y1="437.019" y2="74.98"/><radialGradient id="SVGID_2_" cx="254.386" cy="245.247" gradientUnits="userSpaceOnUse" r="268.876"><stop offset="0" stop-color="#6b23ea"/><stop offset=".4299" stop-color="#676bef" stop-opacity=".57"/><stop offset=".8159" stop-color="#64a5f3" stop-opacity=".184"/><stop offset="1" stop-color="#63bcf5" stop-opacity="0"/></radialGradient><linearGradient id="lg2"><stop offset="0" stop-color="#389fff"/><stop offset=".1209" stop-color="#45affa"/><stop offset=".5726" stop-color="#73e9e7"/><stop offset=".79" stop-color="#85ffe0"/><stop offset=".881" stop-color="#9dffe6"/><stop offset="1" stop-color="#c2fff0"/></linearGradient><linearGradient id="SVGID_3_" gradientUnits="userSpaceOnUse" x1="-183.18" x2="424.402" xlink:href="#lg2" y1="530.657" y2="-76.925"/><linearGradient id="SVGID_4_" gradientUnits="userSpaceOnUse" x1="-175.811" x2="422.704" xlink:href="#lg2" y1="641.192" y2="42.677"/><linearGradient id="SVGID_5_" gradientUnits="userSpaceOnUse" x1="35.238" x2="381.939" xlink:href="#lg1" y1="400.244" y2="53.543"/><linearGradient id="SVGID_6_" gradientUnits="userSpaceOnUse" x1="5.158" x2="413.252" xlink:href="#lg2" y1="757.587" y2="349.492"/><linearGradient id="SVGID_7_" gradientUnits="userSpaceOnUse" x1="-1.446" x2="392.2" xlink:href="#lg2" y1="603.878" y2="210.232"/><linearGradient id="SVGID_8_" gradientUnits="userSpaceOnUse" x1="49.931" x2="277.558" xlink:href="#lg2" y1="574.495" y2="346.867"/><linearGradient id="SVGID_9_" gradientUnits="userSpaceOnUse" x1="61.285" x2="560.888" xlink:href="#lg2" y1="661.281" y2="161.677"/><linearGradient id="SVGID_10_" gradientUnits="userSpaceOnUse" x1="48.481" x2="534.077" xlink:href="#lg2" y1="533.604" y2="48.007"/><linearGradient id="SVGID_11_" gradientUnits="userSpaceOnUse" x1="83.267" x2="616.878" xlink:href="#lg2" y1="620.661" y2="87.05"/><linearGradient id="SVGID_12_" gradientUnits="userSpaceOnUse" x1="145.923" x2="518.328" xlink:href="#lg2" y1="423.449" y2="51.043"/><linearGradient id="SVGID_13_" gradientUnits="userSpaceOnUse" x1="-18.834" x2="404.095" xlink:href="#lg1" y1="454.315" y2="31.386"/><linearGradient id="SVGID_14_" gradientUnits="userSpaceOnUse" x1="36.815" x2="402.526" xlink:href="#lg1" y1="453.209" y2="87.498"/><g><circle cx="256" cy="256" fill="url(#SVGID_1_)" r="256"/><circle cx="256" cy="256" fill="url(#SVGID_2_)" r="256"/><path d="m127.5 83.446c-8.242.234-15.312 7.267-15.667 15.598-2.418 57.936-3.335 115.872-2.75 173.808.086 8.332 7.092 15.22 15.525 15.297 15.47 10.265 30.934 20.589 46.35 30.928-1.076-78.887-.562-157.775 1.542-236.662-15 .271-30 .615-45 1.031z" fill="url(#SVGID_3_)"/><path d="m384.5 83.446c-70.667-1.961-141.333-2.305-212-1.03-8.242.151-15.212 7.172-15.458 15.567-1.66 58.375-2.289 116.751-1.887 175.126.059 8.396 7.033 15.316 15.466 15.366 28.589 15.46 57.108 30.988 85.379 46.363 43.507-15.375 87.396-31.112 131.392-46.688 8.433-.077 15.439-6.965 15.525-15.297.585-57.936-.332-115.872-2.75-173.808-.354-8.332-7.425-15.366-15.667-15.599z" fill="url(#SVGID_4_)"/><path d="m126.903 98.647c-1.976 53.034-2.833 106.067-2.569 159.101 87.777.287 175.554.287 263.331 0-87.513-52.747-176.674-108.213-260.762-159.101z" fill="url(#SVGID_5_)"/><path d="m371.285 333.99c-.45 20.319-1.045 40.637-1.785 60.956 15-.368 30-.809 45-1.322 16.466-.586 30.822-14.651 31.662-31.124-24.726-9.181-49.709-18.724-74.877-28.51z" fill="url(#SVGID_6_)"/><path d="m400.765 363.798c-47.691-13.965-96.049-28.961-144.765-44.336-63.993 15.375-127.516 30.096-190.162 43.037.84 16.473 15.196 30.538 31.662 31.124 90.667 3.104 181.333 3.545 272 1.322 16.467-.419 30.619-14.494 31.265-31.147z" fill="url(#SVGID_7_)"/><path d="m256 334.838c20.314 10.25 40.51 20.421 60.529 30.437-.137 8.468-7.004 15.417-15.32 15.49-30.139.263-60.279.263-90.418 0-8.316-.074-15.183-7.022-15.32-15.49 20.019-10.016 40.215-20.187 60.529-30.437z" fill="url(#SVGID_8_)"/><path d="m407.078 295.319c-2.691-4.529-7.646-7.276-13.033-7.228-15.338.138-30.675.253-46.013.346 18.001 25.373 35.685 50.544 52.733 75.362 15.132-.374 30.265-.807 45.397-1.298-12.548-22.13-25.642-44.55-39.084-67.182z" fill="url(#SVGID_9_)"/><path d="m348.033 288.436c-76.693.461-153.385.346-230.078-.346-5.387-.047-10.342 2.699-13.033 7.229-13.442 22.633-26.536 45.052-39.084 67.181 111.642 3.625 223.285 4.058 334.927 1.298-12.814-22.472-26.101-45.177-39.664-68.036-2.714-4.575-7.681-7.358-13.068-7.326z" fill="url(#SVGID_10_)"/><path d="m393.804 303.273c-9.359.111-18.718.21-28.077.298-7.218 5.152-14.429 10.313-21.631 15.478 13.168 4.975 26.297 9.897 39.376 14.752 9.313-.151 18.626-.32 27.939-.504-5.789-9.964-11.664-19.974-17.607-30.024z" fill="url(#SVGID_11_)"/><path d="m118.195 303.273c-5.942 10.049-11.818 20.06-17.608 30.024 94.296 1.869 188.591 2.037 282.887.504-5.845-10.04-11.766-20.119-17.746-30.23-82.511.777-165.022.677-247.533-.298z" fill="url(#SVGID_12_)"/><path d="m270.225 97.057c-47.774-.131-95.548.399-143.322 1.589 53.908 88.983 153.457 150.086 260.763 159.101.042 0 .063-32.668.021-32.668-39.215-42.238-78.998-85.295-117.462-128.022z" fill="url(#SVGID_13_)"/><path d="m387.687 225.079c-.156-42.144-1.019-84.289-2.59-126.433-38.291-.954-76.582-1.484-114.872-1.589 15.204 59.677 59.916 107.842 117.462 128.022z" fill="url(#SVGID_14_)"/></g></svg>