<svg id="Capa_1" enable-background="new 0 0 512 512" height="512" viewBox="0 0 512 512" width="512" xmlns="http://www.w3.org/2000/svg" xmlns:xlink="http://www.w3.org/1999/xlink"><linearGradient id="SVGID_1_" gradientUnits="userSpaceOnUse" x1="74.981" x2="437.02" y1="437.019" y2="74.98"><stop offset="0" stop-color="#8d00db"/><stop offset="1" stop-color="#fc54ff"/></linearGradient><radialGradient id="SVGID_2_" cx="256.001" cy="256" gradientUnits="userSpaceOnUse" r="258.6"><stop offset="0" stop-color="#8d00db" stop-opacity=".66"/><stop offset=".3184" stop-color="#8d00db" stop-opacity=".66"/><stop offset=".4562" stop-color="#9e0de1" stop-opacity=".527"/><stop offset=".7281" stop-color="#ca2eef" stop-opacity=".263"/><stop offset="1" stop-color="#fc54ff" stop-opacity="0"/></radialGradient><linearGradient id="SVGID_3_" gradientUnits="userSpaceOnUse" x1="54.726" x2="489.015" y1="457.275" y2="22.985"><stop offset="0" stop-color="#fda0ff"/><stop offset=".0064" stop-color="#fda1ff"/><stop offset=".4485" stop-color="#fed4ff"/><stop offset=".7827" stop-color="#fff3ff"/><stop offset=".9682" stop-color="#fff"/></linearGradient><linearGradient id="SVGID_4_" gradientUnits="userSpaceOnUse" x1="136.499" x2="244.761" y1="375.501" y2="267.239"><stop offset="0" stop-color="#fc54ff"/><stop offset=".1997" stop-color="#fc5bff"/><stop offset=".4943" stop-color="#fc6fff"/><stop offset=".8461" stop-color="#fd8fff"/><stop offset="1" stop-color="#fda0ff"/></linearGradient><linearGradient id="SVGID_5_" gradientUnits="userSpaceOnUse" x1="136.356" x2="278.316" y1="376.395" y2="234.435"><stop offset="0" stop-color="#fc54ff"/><stop offset=".2182" stop-color="#fc58ff"/><stop offset=".4554" stop-color="#fc65ff"/><stop offset=".7017" stop-color="#fd7bff"/><stop offset=".9526" stop-color="#fd99ff"/><stop offset="1" stop-color="#fda0ff"/></linearGradient><linearGradient id="SVGID_6_" gradientTransform="matrix(-1 0 0 -1 402 -4882)" gradientUnits="userSpaceOnUse" x1="236.553" x2="19.425" y1="-5228.554" y2="-5011.426"><stop offset=".0279" stop-color="#fc54ff"/><stop offset=".1507" stop-color="#fd75ff"/><stop offset=".3553" stop-color="#fda6ff"/><stop offset=".5491" stop-color="#fecdff"/><stop offset=".7268" stop-color="#ffe8ff"/><stop offset=".8828" stop-color="#fff9ff"/><stop offset="1" stop-color="#fff"/></linearGradient><linearGradient id="SVGID_7_" gradientUnits="userSpaceOnUse" x1="113.845" x2="311.836" y1="221.245" y2="23.254"><stop offset="0" stop-color="#b31de7"/><stop offset=".328" stop-color="#cd4bef" stop-opacity=".657"/><stop offset=".9547" stop-color="#fda0ff" stop-opacity="0"/></linearGradient><linearGradient id="SVGID_8_" gradientUnits="userSpaceOnUse" x1="97.847" x2="316.435" y1="519.9" y2="301.312"><stop offset="0" stop-color="#b31de7"/><stop offset=".3983" stop-color="#d153f1" stop-opacity=".602"/><stop offset="1" stop-color="#fda0ff" stop-opacity="0"/></linearGradient><linearGradient id="SVGID_9_" gradientUnits="userSpaceOnUse" x1="162.132" x2="295.203" y1="374.787" y2="241.716"><stop offset=".0056" stop-color="#8d00db" stop-opacity=".7"/><stop offset=".1155" stop-color="#9e0de0" stop-opacity=".676"/><stop offset=".4784" stop-color="#d133f1" stop-opacity=".595"/><stop offset=".7529" stop-color="#f04bfb" stop-opacity=".534"/><stop offset=".9052" stop-color="#fc54ff" stop-opacity=".5"/></linearGradient><g><circle cx="256" cy="256" fill="url(#SVGID_1_)" r="256"/><circle cx="256" cy="256" fill="url(#SVGID_2_)" r="256"/><path d="m356.5 72.615c-67-4.22-134-4.22-201 0-11.033.709-20.29 10.359-20.626 21.385-.393 13.333-.737 26.667-1.033 40 9.235 40.16 19.146 80.89 29.396 122-10.25 41.11-20.161 81.839-29.396 122-.038-.001.927 37.771 1.033 40 .336 11.027 9.592 20.674 20.626 21.385 25.125 1.806 75.375 3.681 119.344 3.027 43.969-.317 81.656-3.161 81.656-3.027 11.034-.709 20.29-10.357 20.626-21.385.393-13.333.737-26.667 1.033-40-9.235-40.161-19.146-80.89-29.396-122 10.25-41.11 20.161-81.84 29.396-122-.296-13.333-.64-26.667-1.033-40-.336-11.027-9.592-20.675-20.626-21.385z" fill="url(#SVGID_3_)"/><path d="m242.796 381.014c45.121.244 90.242-.761 135.363-3.014-79.634-77.267-164.683-166.733-244.318-244-1 45.063-1.446 90.125-1.338 135.188 36.803 36.466 73.888 74.463 110.293 111.826z" fill="url(#SVGID_4_)"/><path d="m133.841 378c36.318 1.814 72.636 2.819 108.955 3.014-.11.011-13.255-40.3-41.917-69.422-26.414-26.896-68.381-42.439-68.376-42.405.087 36.271.533 72.542 1.338 108.813z" fill="url(#SVGID_5_)"/><path d="m378.159 134c-81.439-4.067-162.878-4.067-244.318 0-.09-.362 47.396 66.571 111.91 132.248 59.42 60.725 132.619 112.383 132.408 111.752 1.805-81.333 1.805-162.667 0-244z" fill="url(#SVGID_6_)"/><path d="m134.874 94c.007.001-.488 15.618-1.033 40 61.333-3.063 122.666-3.819 183.999-2.268-.46-33.652-27.81-62.23-60.84-62.282-33.833-.021-67.667 1.033-101.5 3.165-11.033.709-20.29 10.359-20.626 21.385z" fill="url(#SVGID_7_)"/><path d="m317.84 380.268c-61.333 1.55-122.666.794-183.999-2.268.296 13.333.64 26.667 1.033 40 .336 11.027 9.592 20.674 20.626 21.385 33.833 2.131 67.667 3.186 101.5 3.165 33.03-.051 60.38-28.631 60.84-62.282z" fill="url(#SVGID_8_)"/><path d="m344.218 243.712c-25.821-25.554-51.731-51.631-77.405-77.491-5.981-6.029-15.645-6.029-21.626 0-25.674 25.86-51.584 51.937-77.405 77.491-9.709 9.584-2.827 25.89 10.875 25.966 5.284.018 10.567.034 15.851.049.029 24.12.134 48.241.315 72.362.033 4.217 3.481 7.704 7.7 7.775 7.64.125 15.279.223 22.919.294 4.219.041 7.628-3.377 7.617-7.619-.068-24.247-.107-48.493-.118-72.74 15.373.016 30.746.016 46.119 0-.011 24.247-.05 48.493-.118 72.74-.011 4.242 3.399 7.657 7.617 7.619 7.64-.071 15.279-.169 22.919-.294 4.218-.069 7.667-3.556 7.7-7.775.181-24.12.286-48.241.315-72.362 5.284-.014 10.567-.031 15.851-.049 13.701-.076 20.583-16.382 10.874-25.966z" fill="url(#SVGID_9_)"/></g></svg>