<svg id="Capa_1" enable-background="new 0 0 512 512" height="512" viewBox="0 0 512 512" width="512" xmlns="http://www.w3.org/2000/svg" xmlns:xlink="http://www.w3.org/1999/xlink"><linearGradient id="lg1"><stop offset="0" stop-color="#364aff"/><stop offset="1" stop-color="#fc54ff"/></linearGradient><linearGradient id="SVGID_1_" gradientUnits="userSpaceOnUse" x1="74.981" x2="437.02" xlink:href="#lg1" y1="437.019" y2="74.98"/><radialGradient id="SVGID_2_" cx="256.001" cy="256" gradientUnits="userSpaceOnUse" r="258.6"><stop offset=".095" stop-color="#8d00db" stop-opacity=".66"/><stop offset=".2822" stop-color="#9f0de1" stop-opacity=".523"/><stop offset=".6541" stop-color="#cc30f0" stop-opacity=".252"/><stop offset="1" stop-color="#fc54ff" stop-opacity="0"/></radialGradient><linearGradient id="lg2"><stop offset="0" stop-color="#fda0ff"/><stop offset="1" stop-color="#fff"/></linearGradient><linearGradient id="SVGID_3_" gradientUnits="userSpaceOnUse" x1="-151.486" x2="510.293" xlink:href="#lg2" y1="663.487" y2="1.707"/><linearGradient id="SVGID_4_" gradientUnits="userSpaceOnUse" x1="41.076" x2="429.807" xlink:href="#lg1" y1="365.519" y2="-23.211"/><linearGradient id="SVGID_5_" gradientUnits="userSpaceOnUse" x1="140.13" x2="499.724" xlink:href="#lg2" y1="310.909" y2="-48.684"/><linearGradient id="SVGID_6_" gradientUnits="userSpaceOnUse" x1="-246.31" x2="419.316" y1="802.148" y2="136.522"><stop offset="0" stop-color="#fda0ff"/><stop offset=".1317" stop-color="#fdb0ff"/><stop offset=".5183" stop-color="#fedbff"/><stop offset=".8208" stop-color="#fff5ff"/><stop offset="1" stop-color="#fff"/></linearGradient><linearGradient id="SVGID_7_" gradientUnits="userSpaceOnUse" x1="115.441" x2="361.842" xlink:href="#lg2" y1="441.368" y2="194.967"/><linearGradient id="SVGID_8_" gradientUnits="userSpaceOnUse" x1="38.691" x2="392.994" xlink:href="#lg2" y1="518.108" y2="163.805"/><linearGradient id="lg3"><stop offset="0" stop-color="#b31de7"/><stop offset="1" stop-color="#fda0ff"/></linearGradient><linearGradient id="SVGID_9_" gradientUnits="userSpaceOnUse" x1="166.955" x2="241.029" xlink:href="#lg3" y1="205.141" y2="131.067"/><linearGradient id="SVGID_10_" gradientUnits="userSpaceOnUse" x1="75.117" x2="150.124" xlink:href="#lg3" y1="207.182" y2="132.176"/><linearGradient id="SVGID_11_" gradientUnits="userSpaceOnUse" x1="155.3" x2="216.604" xlink:href="#lg2" y1="171.703" y2="110.399"/><g><circle cx="256" cy="256" fill="url(#SVGID_1_)" r="256"/><circle cx="256" cy="256" fill="url(#SVGID_2_)" r="256"/><path d="m407 407.651c-100.667 4.165-201.333 4.165-302 0-8.276-.349-15.367-7.374-15.784-15.651-4.489-90.667-4.489-181.333 0-272 .417-8.277 7.508-15.302 15.784-15.651 100.667-4.165 201.333-4.165 302 0 8.276.349 15.367 7.374 15.784 15.651 4.489 90.667 4.489 181.333 0 272-.417 8.277-7.508 15.303-15.784 15.651z" fill="url(#SVGID_3_)"/><path d="m104.287 119.413c-.901 20.086-1.603 40.172-2.106 60.259 50.77 19.038 102.241 39.428 153.819 59.928 51.578-20.5 103.049-40.89 153.819-59.928-.503-20.086-1.205-40.172-2.106-60.259-101.142-3.751-202.284-3.751-303.426 0z" fill="url(#SVGID_4_)"/><path d="m102.181 179.672c-.252 10.043-.454 20.086-.606 30.129 51.171 19.452 102.844 40.049 154.425 60.549 51.581-20.5 103.254-41.097 154.425-60.548-.152-10.043-.354-20.086-.606-30.129-102.546-2.097-205.092-2.097-307.638-.001z" fill="url(#SVGID_5_)"/><path d="m101.575 209.802c-.924 60.928-.02 121.857 2.712 182.785 101.142 3.751 202.284 3.751 303.426 0 2.732-60.928 3.636-121.857 2.712-182.785-102.95-1.269-205.9-1.269-308.85 0z" fill="url(#SVGID_6_)"/><path d="m132.009 239.813c-.173 41.143.313 82.286 1.457 123.429 81.69 1.878 163.379 1.878 245.069 0 1.459 1.712-246.267-121.325-246.526-123.429z" fill="url(#SVGID_7_)"/><path d="m132.009 239.813c58.294 77.522 150.563 126.05 246.525 123.429 1.144-41.143 1.629-82.286 1.457-123.429-82.661-.284-165.321-.284-247.982 0z" fill="url(#SVGID_8_)"/><path d="m239.797 147.375c-.026 8.491-6.87 15.388-15.291 15.43-8.421.04-15.183-6.775-15.09-15.251.094-8.473 6.955-15.415 15.306-15.473 8.353-.058 15.1 6.804 15.075 15.294z" fill="url(#SVGID_9_)"/><path d="m148.656 148.431c-.2 8.412-7.161 15.343-15.582 15.503-8.42.16-15.066-6.458-14.798-14.805.267-8.347 7.291-15.322 15.642-15.546 8.352-.227 14.936 6.436 14.738 14.848z" fill="url(#SVGID_10_)"/><path d="m194.226 147.708c-.112 8.467-7.016 15.392-15.436 15.494-8.421.1-15.124-6.63-14.944-15.055.181-8.425 7.122-15.395 15.474-15.537s15.017 6.632 14.906 15.098z" fill="url(#SVGID_11_)"/></g></svg>