<svg id="Capa_1" enable-background="new 0 0 512 512" height="512" viewBox="0 0 512 512" width="512" xmlns="http://www.w3.org/2000/svg" xmlns:xlink="http://www.w3.org/1999/xlink"><linearGradient id="SVGID_1_" gradientUnits="userSpaceOnUse" x1="74.98" x2="437.019" y1="437.019" y2="74.98"><stop offset="0" stop-color="#ff4747"/><stop offset="1" stop-color="#ff9ceb"/></linearGradient><radialGradient id="SVGID_2_" cx="256" cy="256" gradientUnits="userSpaceOnUse" r="256"><stop offset="0" stop-color="#ff2f2b"/><stop offset=".1068" stop-color="#ff3536" stop-opacity=".893"/><stop offset=".2923" stop-color="#ff4552" stop-opacity=".708"/><stop offset=".5342" stop-color="#ff5f80" stop-opacity=".466"/><stop offset=".8201" stop-color="#ff83c0" stop-opacity=".18"/><stop offset="1" stop-color="#ff9ceb" stop-opacity="0"/></radialGradient><linearGradient id="lg1"><stop offset="0" stop-color="#ffa9d4"/><stop offset=".2953" stop-color="#ffc6e3"/><stop offset=".7601" stop-color="#ffeff7"/><stop offset="1" stop-color="#fff"/></linearGradient><linearGradient id="SVGID_3_" gradientUnits="userSpaceOnUse" x1="-145.291" x2="461.108" xlink:href="#lg1" y1="502.615" y2="-103.784"/><linearGradient id="SVGID_4_" gradientUnits="userSpaceOnUse" x1="-176.401" x2="422.946" xlink:href="#lg1" y1="651.659" y2="52.313"/><linearGradient id="lg2"><stop offset="0" stop-color="#ff2f2b"/><stop offset="1" stop-color="#ff9ceb"/></linearGradient><linearGradient id="SVGID_5_" gradientUnits="userSpaceOnUse" x1="48.103" x2="394.706" xlink:href="#lg2" y1="397.216" y2="50.613"/><linearGradient id="SVGID_6_" gradientUnits="userSpaceOnUse" x1="4.943" x2="413.225" xlink:href="#lg1" y1="767.826" y2="359.544"/><linearGradient id="SVGID_7_" gradientUnits="userSpaceOnUse" x1="-1.347" x2="392.141" xlink:href="#lg1" y1="613.851" y2="220.363"/><linearGradient id="SVGID_8_" gradientUnits="userSpaceOnUse" x1="49.985" x2="277.553" xlink:href="#lg1" y1="584.614" y2="357.046"/><linearGradient id="SVGID_9_" gradientUnits="userSpaceOnUse" x1="159.321" x2="582.807" xlink:href="#lg1" y1="573.259" y2="149.772"/><linearGradient id="SVGID_10_" gradientUnits="userSpaceOnUse" x1="85.992" x2="571.24" xlink:href="#lg1" y1="506.183" y2="20.935"/><linearGradient id="lg3"><stop offset="0" stop-color="#ff79a2"/><stop offset=".6553" stop-color="#ffb0cf"/><stop offset="1" stop-color="#ffc8e3"/></linearGradient><linearGradient id="SVGID_11_" gradientUnits="userSpaceOnUse" x1="-57.508" x2="476.342" xlink:href="#lg3" y1="771.474" y2="237.624"/><linearGradient id="SVGID_12_" gradientUnits="userSpaceOnUse" x1="71.045" x2="443.183" xlink:href="#lg3" y1="508.429" y2="136.291"/><linearGradient id="SVGID_13_" gradientUnits="userSpaceOnUse" x1="-19.31" x2="404.049" xlink:href="#lg2" y1="464.629" y2="41.27"/><linearGradient id="SVGID_14_" gradientUnits="userSpaceOnUse" x1="28.508" x2="395.422" xlink:href="#lg2" y1="471.697" y2="104.783"/><linearGradient id="SVGID_15_" gradientUnits="userSpaceOnUse" x1="249.778" x2="395.221" xlink:href="#lg2" y1="267.692" y2="122.25"/><linearGradient id="lg4"><stop offset="0" stop-color="#ff9ceb" stop-opacity="0"/><stop offset=".1699" stop-color="#ff9ae8" stop-opacity=".17"/><stop offset=".3159" stop-color="#ff94dd" stop-opacity=".316"/><stop offset=".4532" stop-color="#ff8acb" stop-opacity=".453"/><stop offset=".5851" stop-color="#ff7cb2" stop-opacity=".585"/><stop offset=".7132" stop-color="#ff6992" stop-opacity=".713"/><stop offset=".8385" stop-color="#ff536b" stop-opacity=".839"/><stop offset=".9592" stop-color="#ff393d" stop-opacity=".959"/><stop offset="1" stop-color="#ff2f2b"/></linearGradient><radialGradient id="SVGID_16_" cx="318.424" cy="199.071" gradientUnits="userSpaceOnUse" r="50.337" xlink:href="#lg4"/><linearGradient id="SVGID_17_" gradientUnits="userSpaceOnUse" x1="290.805" x2="517.935" xlink:href="#lg1" y1="216.057" y2="-11.073"/><linearGradient id="SVGID_18_" gradientUnits="userSpaceOnUse" x1="257.785" x2="484.143" xlink:href="#lg1" y1="225.951" y2="-.408"/><linearGradient id="SVGID_19_" gradientUnits="userSpaceOnUse" x1="205.138" x2="411.634" xlink:href="#lg1" y1="207.97" y2="1.474"/><linearGradient id="SVGID_20_" gradientUnits="userSpaceOnUse" x1="286.898" x2="286.898" y1="311.34" y2="-53.691"><stop offset="0" stop-color="#ff2f2b"/><stop offset=".0749" stop-color="#ff434f" stop-opacity=".925"/><stop offset=".1766" stop-color="#ff5b78" stop-opacity=".823"/><stop offset=".2844" stop-color="#ff6f9c" stop-opacity=".716"/><stop offset=".3975" stop-color="#ff7fb9" stop-opacity=".603"/><stop offset=".5176" stop-color="#ff8ccf" stop-opacity=".482"/><stop offset=".6479" stop-color="#ff95df" stop-opacity=".352"/><stop offset=".7958" stop-color="#ff9ae8" stop-opacity=".204"/><stop offset="1" stop-color="#ff9ceb" stop-opacity="0"/></linearGradient><linearGradient id="SVGID_21_" gradientUnits="userSpaceOnUse" x1="137.682" x2="302.977" xlink:href="#lg2" y1="232.826" y2="67.531"/><radialGradient id="SVGID_22_" cx="193.711" cy="176.578" gradientUnits="userSpaceOnUse" r="50.283" xlink:href="#lg4"/><linearGradient id="SVGID_23_" gradientUnits="userSpaceOnUse" x1="163.99" x2="319.122" xlink:href="#lg1" y1="209.02" y2="53.889"/><linearGradient id="SVGID_24_" gradientUnits="userSpaceOnUse" x1="164.033" x2="318.916" xlink:href="#lg1" y1="259.445" y2="104.563"/><linearGradient id="SVGID_25_" gradientUnits="userSpaceOnUse" x1="212.79" x2="212.79" y1="396.829" y2="71.917"><stop offset="0" stop-color="#ff9ceb" stop-opacity="0"/><stop offset=".2042" stop-color="#ff9ae8" stop-opacity=".204"/><stop offset=".3521" stop-color="#ff95df" stop-opacity=".352"/><stop offset=".4824" stop-color="#ff8ccf" stop-opacity=".482"/><stop offset=".6025" stop-color="#ff7fb9" stop-opacity=".603"/><stop offset=".7156" stop-color="#ff6f9c" stop-opacity=".716"/><stop offset=".8234" stop-color="#ff5b78" stop-opacity=".823"/><stop offset=".9251" stop-color="#ff434f" stop-opacity=".925"/><stop offset="1" stop-color="#ff2f2b"/></linearGradient><g><circle cx="256" cy="256" fill="url(#SVGID_1_)" r="256"/><circle cx="256" cy="256" fill="url(#SVGID_2_)" r="256"/><path d="m126.929 93.546c-8.279.222-15.337 7.246-15.642 15.577-2.079 57.936-2.793 115.872-2.142 173.808.095 8.333 7.103 15.231 15.531 15.318 15.468 10.286 30.925 20.626 46.332 30.979-1.071-78.887-.698-157.775 1.121-236.662-15.066.258-30.133.584-45.2.98z" fill="url(#SVGID_3_)"/><path d="m385.071 93.546c-70.981-1.866-141.961-2.192-212.942-.98-8.279.144-15.25 7.156-15.461 15.553-1.427 58.375-1.917 116.751-1.471 175.126.066 8.397 7.039 15.323 15.468 15.38 28.58 15.485 57.08 31.025 85.335 46.4 43.483-15.375 87.341-31.141 131.324-46.776 8.428-.088 15.436-6.988 15.531-15.318.651-57.936-.064-115.872-2.142-173.808-.305-8.331-7.362-15.355-15.642-15.577z" fill="url(#SVGID_4_)"/><path d="m126.414 108.747c-1.699 53.034-2.38 106.067-2.043 159.101 87.752.403 175.505.403 263.257 0-87.415-52.631-176.523-108.097-261.214-159.101z" fill="url(#SVGID_5_)"/><path d="m371.221 344.11c-.442 20.319-1.016 40.637-1.721 60.956 15-.385 30-.848 45-1.387 16.468-.614 30.782-14.706 31.593-31.179-24.735-9.131-49.714-18.634-74.872-28.39z" fill="url(#SVGID_6_)"/><path d="m400.712 373.877c-47.693-13.892-96.024-28.852-144.712-44.227-63.956 15.375-127.443 30.033-190.093 42.85.81 16.474 15.125 30.565 31.593 31.179 90.667 3.256 181.333 3.718 272 1.387 16.469-.437 30.59-14.537 31.212-31.189z" fill="url(#SVGID_7_)"/><path d="m256 345.025c20.303 10.25 40.49 20.415 60.507 30.418-.132 8.467-6.993 15.42-15.307 15.499-30.133.277-60.266.277-90.4 0-8.314-.078-15.175-7.031-15.307-15.499 20.017-10.003 40.204-20.168 60.507-30.418z" fill="url(#SVGID_8_)"/><path d="m406.995 305.391c-2.686-4.524-7.637-7.265-13.021-7.209-15.33.16-30.659.292-45.989.399 17.98 25.356 35.652 50.505 52.727 75.296 15.127-.397 30.254-.856 45.38-1.377-12.582-22.102-25.674-44.497-39.097-67.109z" fill="url(#SVGID_9_)"/><path d="m347.985 298.581c-76.653.532-153.306.399-229.959-.399-5.385-.055-10.335 2.685-13.021 7.209-13.422 22.611-26.515 45.007-39.098 67.109 111.602 3.846 223.203 4.305 334.805 1.377-12.839-22.451-26.122-45.139-39.668-67.984-2.712-4.569-7.674-7.351-13.059-7.312z" fill="url(#SVGID_10_)"/><path d="m393.726 313.365c-9.354.124-18.707.235-28.061.333-7.215 5.159-14.423 10.327-21.619 15.5 13.161 4.963 26.282 9.871 39.357 14.709 9.308-.164 18.616-.345 27.924-.545-5.793-9.955-11.665-19.956-17.601-29.997z" fill="url(#SVGID_11_)"/><path d="m118.274 313.365c-5.936 10.041-11.808 20.042-17.601 29.997 94.243 2.019 188.487 2.201 282.73.545-5.847-10.032-11.764-20.104-17.738-30.208-82.464.867-164.927.756-247.391-.334z" fill="url(#SVGID_12_)"/><path d="m270.279 107.244c-47.955-.124-95.909.377-143.864 1.503 54.577 89.063 153.923 150.232 261.214 159.101.038.001.117-32.668.079-32.668-39.13-42.187-78.845-85.215-117.429-127.936z" fill="url(#SVGID_13_)"/><path d="m387.708 235.18c-.064-42.144-.772-84.289-2.122-126.433-38.436-.903-76.871-1.404-115.307-1.503 15.24 59.673 59.925 107.833 117.429 127.936z" fill="url(#SVGID_14_)"/><path d="m356.799 199.246c-.179-21.065-17.563-38.358-38.641-38.514-21.082-.15-38.13 17.024-38.109 38.247.034 21.225 17.246 38.432 38.476 38.432 21.225-.009 38.444-17.098 38.274-38.165z" fill="url(#SVGID_15_)"/><path d="m356.799 199.246c-.179-21.065-17.563-38.358-38.641-38.514-21.082-.15-38.13 17.024-38.109 38.247.034 21.225 17.246 38.432 38.476 38.432 21.225-.009 38.444-17.098 38.274-38.165z" fill="url(#SVGID_16_)"/><path d="m295.273 168.287c.053 10.239.095 20.479.126 30.719.036 12.731 10.367 23.051 23.105 23.069 12.738.015 23.032-10.235 22.945-22.909-.067-10.201-.158-20.402-.273-30.603-15.301-.126-30.602-.218-45.903-.276z" fill="url(#SVGID_17_)"/><path d="m295.185 152.928c.032 5.12.061 10.24.088 15.359.033 6.369 2.631 12.132 6.81 16.313 4.179 4.182 9.94 6.778 16.301 6.804 12.716.047 22.942-10.166 22.792-22.84-.058-5.101-.121-10.201-.191-15.301-15.267-.153-30.533-.265-45.8-.335z" fill="url(#SVGID_18_)"/><path d="m265 76.484c-3.333-.007-6.667-.01-10-.009-12.413.003-22.56 10.383-22.653 23.116-.09 12.735 10.05 23.008 22.641 23.009 3.373-.001 6.747.002 10.12.007 16.468.026 29.954 13.646 30.077 30.321.039 6.37 2.638 12.134 6.816 16.318 4.176 4.185 9.932 6.786 16.283 6.821 12.697.063 22.882-10.132 22.701-22.806-.714-41.888-35.03-76.657-75.985-76.777z" fill="url(#SVGID_19_)"/><path d="m265 76.484c-3.333-.007-6.667-.01-10-.009-12.413.003-22.56 10.383-22.653 23.116-.09 12.735 10.05 23.008 22.641 23.009 3.373-.001 6.747.002 10.12.007 16.468.026 29.954 13.646 30.077 30.321.096 15.359.168 30.719.214 46.078.036 12.731 10.367 23.051 23.105 23.069 12.738.015 23.032-10.235 22.945-22.909-.1-15.302-.255-30.603-.464-45.904-.714-41.889-35.03-76.658-75.985-76.778z" fill="url(#SVGID_20_)"/><path d="m232.004 176.437c.034-21.224-16.932-38.386-37.929-38.198-20.994.196-38.383 17.542-38.655 38.607-.264 21.067 16.875 38.101 38.094 38.072 21.223-.039 38.441-17.256 38.49-38.481z" fill="url(#SVGID_21_)"/><path d="m232.004 176.437c.034-21.224-16.932-38.386-37.929-38.198-20.994.196-38.383 17.542-38.655 38.607-.264 21.067 16.875 38.101 38.094 38.072 21.223-.039 38.441-17.256 38.49-38.481z" fill="url(#SVGID_22_)"/><path d="m193.91 153.575c-12.643.096-23.038 10.478-23.173 23.149-.049 4.931-.093 9.861-.131 14.791 15.34-.086 30.681-.149 46.021-.189.018-4.949.038-9.898.061-14.847.05-12.731-10.134-23-22.778-22.904z" fill="url(#SVGID_23_)"/><path d="m193.776 168.4c6.345-.038 12.057 2.512 16.19 6.66 4.132 4.149 6.683 9.897 6.661 16.266-.032 8.477 6.833 15.346 15.312 15.337 12.723-.015 23.034 10.309 23.036 23.049 0 12.74-10.322 23.064-23.06 23.058-33.949-.044-61.584-27.495-61.309-61.255.104-12.673 10.498-23.034 23.17-23.115z" fill="url(#SVGID_24_)"/><path d="m231.939 206.663c-8.479.007-15.344-6.86-15.312-15.337.018-4.949.038-9.898.061-14.847.05-12.73-10.133-23-22.777-22.904-12.643.096-23.038 10.478-23.173 23.149-.049 4.931-.093 9.861-.131 14.791-.275 33.761 27.36 61.211 61.309 61.255 12.738.006 23.06-10.317 23.06-23.058-.003-12.741-10.314-23.064-23.037-23.049z" fill="url(#SVGID_25_)"/></g></svg>